<mxfile host="65bd71144e">
    <diagram id="WsBJsLWQmemgCeX_1wrG" name="第 1 页">
        <mxGraphModel dx="2770" dy="1967" grid="1" gridSize="10" guides="1" tooltips="1" connect="1" arrows="1" fold="1" page="1" pageScale="1" pageWidth="827" pageHeight="1169" math="0" shadow="0">
            <root>
                <mxCell id="0"/>
                <mxCell id="1" parent="0"/>
                <mxCell id="4" value="" style="edgeStyle=none;html=1;" edge="1" parent="1" source="2" target="3">
                    <mxGeometry relative="1" as="geometry"/>
                </mxCell>
                <mxCell id="2" value="new Vue" style="ellipse;whiteSpace=wrap;html=1;fillColor=#d80073;fontColor=#ffffff;strokeColor=#A50040;" vertex="1" parent="1">
                    <mxGeometry x="110" y="20" width="80" height="60" as="geometry"/>
                </mxCell>
                <mxCell id="6" style="edgeStyle=none;html=1;entryX=-0.023;entryY=0.564;entryDx=0;entryDy=0;entryPerimeter=0;" edge="1" parent="1" source="3" target="5">
                    <mxGeometry relative="1" as="geometry"/>
                </mxCell>
                <mxCell id="8" value="" style="edgeStyle=none;html=1;" edge="1" parent="1" source="3" target="7">
                    <mxGeometry relative="1" as="geometry"/>
                </mxCell>
                <mxCell id="88" style="edgeStyle=none;html=1;entryX=1;entryY=0.25;entryDx=0;entryDy=0;fontSize=24;" edge="1" parent="1" source="3" target="87">
                    <mxGeometry relative="1" as="geometry"/>
                </mxCell>
                <mxCell id="161" style="edgeStyle=none;html=1;exitX=0;exitY=0.5;exitDx=0;exitDy=0;entryX=1;entryY=0.25;entryDx=0;entryDy=0;strokeColor=#FFFFFF;fontSize=24;fontColor=#FFFFFF;" edge="1" parent="1" source="3" target="157">
                    <mxGeometry relative="1" as="geometry"/>
                </mxCell>
                <mxCell id="3" value="iniit" style="whiteSpace=wrap;html=1;" vertex="1" parent="1">
                    <mxGeometry x="90" y="120" width="120" height="60" as="geometry"/>
                </mxCell>
                <mxCell id="5" value="&lt;div style=&quot;color: rgb(171, 178, 191); background-color: rgb(40, 44, 52); font-family: Menlo, Monaco, &amp;quot;Courier New&amp;quot;, monospace; font-weight: normal; font-size: 14px; line-height: 21px;&quot;&gt;&lt;div&gt;&lt;span style=&quot;color: #e06c75;&quot;&gt;this&lt;/span&gt;&lt;span style=&quot;color: #abb2bf;&quot;&gt;.&lt;/span&gt;&lt;span style=&quot;color: #61afef;&quot;&gt;_callHook&lt;/span&gt;&lt;span style=&quot;color: #abb2bf;&quot;&gt;(&lt;/span&gt;&lt;span style=&quot;color: #98c379;&quot;&gt;'init'&lt;/span&gt;&lt;span style=&quot;color: #abb2bf;&quot;&gt;)&lt;/span&gt;&lt;/div&gt;&lt;div&gt;&lt;span style=&quot;color: #abb2bf;&quot;&gt;    &lt;/span&gt;&lt;span style=&quot;color: #e06c75;&quot;&gt;this&lt;/span&gt;&lt;span style=&quot;color: #abb2bf;&quot;&gt;.&lt;/span&gt;&lt;span style=&quot;color: #61afef;&quot;&gt;_initMixins&lt;/span&gt;&lt;span style=&quot;color: #abb2bf;&quot;&gt;()&lt;/span&gt;&lt;/div&gt;&lt;div&gt;&lt;span style=&quot;color: #abb2bf;&quot;&gt;    &lt;/span&gt;&lt;span style=&quot;color: #e06c75;&quot;&gt;this&lt;/span&gt;&lt;span style=&quot;color: #abb2bf;&quot;&gt;.&lt;/span&gt;&lt;span style=&quot;color: #61afef;&quot;&gt;_initComponents&lt;/span&gt;&lt;span style=&quot;color: #abb2bf;&quot;&gt;()&lt;/span&gt;&lt;/div&gt;&lt;div&gt;&lt;span style=&quot;color: #abb2bf;&quot;&gt;    &lt;/span&gt;&lt;span style=&quot;color: #e06c75;&quot;&gt;this&lt;/span&gt;&lt;span style=&quot;color: #abb2bf;&quot;&gt;.&lt;/span&gt;&lt;span style=&quot;color: #61afef;&quot;&gt;_initProps&lt;/span&gt;&lt;span style=&quot;color: #abb2bf;&quot;&gt;()&lt;/span&gt;&lt;/div&gt;&lt;div&gt;&lt;span style=&quot;color: #abb2bf;&quot;&gt;    &lt;/span&gt;&lt;span style=&quot;color: #e06c75;&quot;&gt;this&lt;/span&gt;&lt;span style=&quot;color: #abb2bf;&quot;&gt;.&lt;/span&gt;&lt;span style=&quot;color: #61afef;&quot;&gt;_initMethods&lt;/span&gt;&lt;span style=&quot;color: #abb2bf;&quot;&gt;()&lt;/span&gt;&lt;/div&gt;&lt;div&gt;&lt;span style=&quot;color: #abb2bf;&quot;&gt;    &lt;/span&gt;&lt;span style=&quot;color: #e06c75;&quot;&gt;this&lt;/span&gt;&lt;span style=&quot;color: #abb2bf;&quot;&gt;.&lt;/span&gt;&lt;span style=&quot;color: #61afef;&quot;&gt;_initData&lt;/span&gt;&lt;span style=&quot;color: #abb2bf;&quot;&gt;()&lt;/span&gt;&lt;/div&gt;&lt;div&gt;&lt;span style=&quot;color: #abb2bf;&quot;&gt;    &lt;/span&gt;&lt;span style=&quot;color: #e06c75;&quot;&gt;this&lt;/span&gt;&lt;span style=&quot;color: #abb2bf;&quot;&gt;.&lt;/span&gt;&lt;span style=&quot;color: #61afef;&quot;&gt;_initWatch&lt;/span&gt;&lt;span style=&quot;color: #abb2bf;&quot;&gt;()&lt;/span&gt;&lt;/div&gt;&lt;div&gt;&lt;span style=&quot;color: #abb2bf;&quot;&gt;    &lt;/span&gt;&lt;span style=&quot;color: #e06c75;&quot;&gt;this&lt;/span&gt;&lt;span style=&quot;color: #abb2bf;&quot;&gt;.&lt;/span&gt;&lt;span style=&quot;color: #61afef;&quot;&gt;_initComputed&lt;/span&gt;&lt;span style=&quot;color: #abb2bf;&quot;&gt;()&lt;/span&gt;&lt;/div&gt;&lt;div&gt;&lt;span style=&quot;color: #abb2bf;&quot;&gt;    &lt;/span&gt;&lt;span style=&quot;color: #e06c75;&quot;&gt;this&lt;/span&gt;&lt;span style=&quot;color: #abb2bf;&quot;&gt;.&lt;/span&gt;&lt;span style=&quot;color: #61afef;&quot;&gt;_initEvents&lt;/span&gt;&lt;span style=&quot;color: #abb2bf;&quot;&gt;()&lt;/span&gt;&lt;/div&gt;&lt;div&gt;&lt;div style=&quot;line-height: 21px;&quot;&gt;&lt;span style=&quot;color: #e06c75;&quot;&gt;this&lt;/span&gt;.&lt;span style=&quot;color: #61afef;&quot;&gt;_callHook&lt;/span&gt;(&lt;span style=&quot;color: #98c379;&quot;&gt;'created'&lt;/span&gt;)&lt;/div&gt;&lt;/div&gt;&lt;/div&gt;" style="text;whiteSpace=wrap;html=1;" vertex="1" parent="1">
                    <mxGeometry x="250" y="30" width="220" height="220" as="geometry"/>
                </mxCell>
                <mxCell id="10" style="edgeStyle=none;html=1;entryX=0;entryY=0.5;entryDx=0;entryDy=0;" edge="1" parent="1" source="7" target="9">
                    <mxGeometry relative="1" as="geometry"/>
                </mxCell>
                <mxCell id="12" value="" style="edgeStyle=none;html=1;" edge="1" parent="1" source="7" target="11">
                    <mxGeometry relative="1" as="geometry"/>
                </mxCell>
                <mxCell id="7" value="&lt;div style=&quot;color: rgb(171, 178, 191); background-color: rgb(40, 44, 52); font-family: Menlo, Monaco, &amp;quot;Courier New&amp;quot;, monospace; font-size: 14px; line-height: 21px;&quot;&gt;&lt;span style=&quot;color: #61afef;&quot;&gt;_compile&lt;/span&gt;&lt;/div&gt;" style="whiteSpace=wrap;html=1;" vertex="1" parent="1">
                    <mxGeometry x="90" y="260" width="120" height="60" as="geometry"/>
                </mxCell>
                <mxCell id="9" value="&lt;div style=&quot;color: rgb(171, 178, 191); background-color: rgb(40, 44, 52); font-family: Menlo, Monaco, &amp;quot;Courier New&amp;quot;, monospace; font-weight: normal; font-size: 14px; line-height: 21px;&quot;&gt;&lt;div&gt;&lt;span style=&quot;color: #e06c75;&quot;&gt;...处理插槽数据等&lt;/span&gt;&lt;/div&gt;&lt;div&gt;&lt;span style=&quot;color: #abb2bf;&quot;&gt; &lt;/span&gt;&lt;span style=&quot;color: #e06c75;&quot;&gt;this&lt;/span&gt;&lt;span style=&quot;color: #abb2bf;&quot;&gt;.&lt;/span&gt;&lt;span style=&quot;color: #61afef;&quot;&gt;_callHook&lt;/span&gt;&lt;span style=&quot;color: #abb2bf;&quot;&gt;(&lt;/span&gt;&lt;span style=&quot;color: #98c379;&quot;&gt;'beforeCompile'&lt;/span&gt;&lt;span style=&quot;color: #abb2bf;&quot;&gt;)&lt;/span&gt;&lt;/div&gt;&lt;/div&gt;" style="text;whiteSpace=wrap;html=1;" vertex="1" parent="1">
                    <mxGeometry x="250" y="270" width="290" height="40" as="geometry"/>
                </mxCell>
                <mxCell id="11" value="compile" style="rounded=1;whiteSpace=wrap;html=1;fillColor=#60a917;fontColor=#ffffff;strokeColor=#2D7600;" vertex="1" parent="1">
                    <mxGeometry x="90" y="370" width="120" height="60" as="geometry"/>
                </mxCell>
                <mxCell id="15" style="edgeStyle=none;html=1;" edge="1" parent="1" source="13" target="14">
                    <mxGeometry relative="1" as="geometry"/>
                </mxCell>
                <mxCell id="13" value="compile" style="ellipse;whiteSpace=wrap;html=1;fillColor=#60a917;fontColor=#ffffff;strokeColor=#2D7600;" vertex="1" parent="1">
                    <mxGeometry x="640" width="80" height="70" as="geometry"/>
                </mxCell>
                <mxCell id="18" value="" style="edgeStyle=none;html=1;" edge="1" parent="1" source="14" target="17">
                    <mxGeometry relative="1" as="geometry"/>
                </mxCell>
                <mxCell id="45" value="" style="edgeStyle=none;html=1;" edge="1" parent="1" source="14" target="44">
                    <mxGeometry relative="1" as="geometry"/>
                </mxCell>
                <mxCell id="14" value="&lt;div style=&quot;color: rgb(171, 178, 191); background-color: rgb(40, 44, 52); font-family: Menlo, Monaco, &amp;quot;Courier New&amp;quot;, monospace; font-size: 14px; line-height: 21px;&quot;&gt;&lt;span style=&quot;color: #61afef;&quot;&gt;compileNode&lt;/span&gt;&lt;/div&gt;" style="rounded=1;whiteSpace=wrap;html=1;" vertex="1" parent="1">
                    <mxGeometry x="620" y="110" width="120" height="60" as="geometry"/>
                </mxCell>
                <mxCell id="22" style="edgeStyle=none;html=1;entryX=-0.036;entryY=0.375;entryDx=0;entryDy=0;entryPerimeter=0;" edge="1" parent="1" source="17" target="19">
                    <mxGeometry relative="1" as="geometry"/>
                </mxCell>
                <mxCell id="41" value="1" style="edgeLabel;html=1;align=center;verticalAlign=middle;resizable=0;points=[];" vertex="1" connectable="0" parent="22">
                    <mxGeometry x="-0.0944" relative="1" as="geometry">
                        <mxPoint as="offset"/>
                    </mxGeometry>
                </mxCell>
                <mxCell id="24" style="edgeStyle=none;html=1;entryX=0;entryY=0.5;entryDx=0;entryDy=0;" edge="1" parent="1" source="17" target="23">
                    <mxGeometry relative="1" as="geometry"/>
                </mxCell>
                <mxCell id="42" value="2" style="edgeLabel;html=1;align=center;verticalAlign=middle;resizable=0;points=[];" vertex="1" connectable="0" parent="24">
                    <mxGeometry x="-0.1062" y="5" relative="1" as="geometry">
                        <mxPoint x="-1" as="offset"/>
                    </mxGeometry>
                </mxCell>
                <mxCell id="28" value="" style="edgeStyle=none;html=1;" edge="1" parent="1" source="17" target="27">
                    <mxGeometry relative="1" as="geometry"/>
                </mxCell>
                <mxCell id="43" value="3" style="edgeLabel;html=1;align=center;verticalAlign=middle;resizable=0;points=[];" vertex="1" connectable="0" parent="28">
                    <mxGeometry x="-0.2553" y="-6" relative="1" as="geometry">
                        <mxPoint y="-1" as="offset"/>
                    </mxGeometry>
                </mxCell>
                <mxCell id="17" value="&lt;div style=&quot;color: rgb(171, 178, 191); background-color: rgb(40, 44, 52); font-family: Menlo, Monaco, &amp;quot;Courier New&amp;quot;, monospace; font-size: 14px; line-height: 21px;&quot;&gt;&lt;div style=&quot;line-height: 21px;&quot;&gt;&lt;span style=&quot;color: #61afef;&quot;&gt;compileElement&lt;/span&gt;&lt;/div&gt;&lt;/div&gt;" style="rounded=1;whiteSpace=wrap;html=1;" vertex="1" parent="1">
                    <mxGeometry x="760" y="100" width="130" height="60" as="geometry"/>
                </mxCell>
                <mxCell id="21" style="edgeStyle=none;html=1;" edge="1" parent="1" source="19" target="20">
                    <mxGeometry relative="1" as="geometry"/>
                </mxCell>
                <mxCell id="19" value="component" style="whiteSpace=wrap;html=1;" vertex="1" parent="1">
                    <mxGeometry x="1010" y="-65" width="120" height="60" as="geometry"/>
                </mxCell>
                <mxCell id="20" value="&lt;meta charset=&quot;utf-8&quot;&gt;&lt;div style=&quot;color: rgb(171, 178, 191); background-color: rgb(40, 44, 52); font-family: Menlo, Monaco, &amp;quot;Courier New&amp;quot;, monospace; font-weight: normal; font-size: 14px; line-height: 21px;&quot;&gt;&lt;div&gt;&lt;span style=&quot;color: #abb2bf;&quot;&gt;des.&lt;/span&gt;&lt;span style=&quot;color: #61afef;&quot;&gt;push&lt;/span&gt;&lt;span style=&quot;color: #abb2bf;&quot;&gt;({&lt;/span&gt;&lt;/div&gt;&lt;div&gt;&lt;span style=&quot;color: #abb2bf;&quot;&gt;        vm,&lt;/span&gt;&lt;/div&gt;&lt;div&gt;&lt;span style=&quot;color: #abb2bf;&quot;&gt;        &lt;/span&gt;&lt;span style=&quot;color: #e06c75;&quot;&gt;el&lt;/span&gt;&lt;span style=&quot;color: #56b6c2;&quot;&gt;:&lt;/span&gt;&lt;span style=&quot;color: #abb2bf;&quot;&gt; node,&lt;/span&gt;&lt;/div&gt;&lt;div&gt;&lt;span style=&quot;color: #abb2bf;&quot;&gt;        &lt;/span&gt;&lt;span style=&quot;color: #e06c75;&quot;&gt;name&lt;/span&gt;&lt;span style=&quot;color: #56b6c2;&quot;&gt;:&lt;/span&gt;&lt;span style=&quot;color: #abb2bf;&quot;&gt; &lt;/span&gt;&lt;span style=&quot;color: #98c379;&quot;&gt;'component'&lt;/span&gt;&lt;span style=&quot;color: #abb2bf;&quot;&gt;,&lt;/span&gt;&lt;/div&gt;&lt;div&gt;&lt;span style=&quot;color: #abb2bf;&quot;&gt;        &lt;/span&gt;&lt;span style=&quot;color: #e06c75;&quot;&gt;expression&lt;/span&gt;&lt;span style=&quot;color: #56b6c2;&quot;&gt;:&lt;/span&gt;&lt;span style=&quot;color: #abb2bf;&quot;&gt; tag,&lt;/span&gt;&lt;/div&gt;&lt;div&gt;&lt;span style=&quot;color: #abb2bf;&quot;&gt;        &lt;/span&gt;&lt;span style=&quot;color: #e06c75;&quot;&gt;def&lt;/span&gt;&lt;span style=&quot;color: #56b6c2;&quot;&gt;:&lt;/span&gt;&lt;span style=&quot;color: #abb2bf;&quot;&gt; directives.&lt;/span&gt;&lt;span style=&quot;color: #e06c75;&quot;&gt;component&lt;/span&gt;&lt;span style=&quot;color: #abb2bf;&quot;&gt;,&lt;/span&gt;&lt;/div&gt;&lt;div&gt;&lt;span style=&quot;color: #abb2bf;&quot;&gt;        &lt;/span&gt;&lt;span style=&quot;color: #e06c75;&quot;&gt;modifiers&lt;/span&gt;&lt;span style=&quot;color: #56b6c2;&quot;&gt;:&lt;/span&gt;&lt;span style=&quot;color: #abb2bf;&quot;&gt; {&lt;/span&gt;&lt;/div&gt;&lt;div&gt;&lt;span style=&quot;color: #abb2bf;&quot;&gt;          &lt;/span&gt;&lt;span style=&quot;color: #e06c75;&quot;&gt;literal&lt;/span&gt;&lt;span style=&quot;color: #56b6c2;&quot;&gt;:&lt;/span&gt;&lt;span style=&quot;color: #abb2bf;&quot;&gt; &lt;/span&gt;&lt;span style=&quot;color: #d19a66;&quot;&gt;true&lt;/span&gt;&lt;/div&gt;&lt;div&gt;&lt;span style=&quot;color: #abb2bf;&quot;&gt;        }&lt;/span&gt;&lt;/div&gt;&lt;div&gt;&lt;span style=&quot;color: #abb2bf;&quot;&gt;      })&lt;/span&gt;&lt;/div&gt;&lt;/div&gt;" style="text;whiteSpace=wrap;html=1;" vertex="1" parent="1">
                    <mxGeometry x="1250" y="-190" width="250" height="230" as="geometry"/>
                </mxCell>
                <mxCell id="26" style="edgeStyle=none;html=1;exitX=1;exitY=0.75;exitDx=0;exitDy=0;" edge="1" parent="1" source="23" target="25">
                    <mxGeometry relative="1" as="geometry"/>
                </mxCell>
                <mxCell id="23" value="slot" style="whiteSpace=wrap;html=1;" vertex="1" parent="1">
                    <mxGeometry x="1020" y="60" width="120" height="60" as="geometry"/>
                </mxCell>
                <mxCell id="25" value="&lt;meta charset=&quot;utf-8&quot;&gt;&lt;div style=&quot;color: rgb(171, 178, 191); background-color: rgb(40, 44, 52); font-family: Menlo, Monaco, &amp;quot;Courier New&amp;quot;, monospace; font-weight: normal; font-size: 14px; line-height: 21px;&quot;&gt;&lt;div&gt;&lt;span style=&quot;color: #abb2bf;&quot;&gt;des.&lt;/span&gt;&lt;span style=&quot;color: #61afef;&quot;&gt;push&lt;/span&gt;&lt;span style=&quot;color: #abb2bf;&quot;&gt;({&lt;/span&gt;&lt;/div&gt;&lt;div&gt;&lt;span style=&quot;color: #abb2bf;&quot;&gt;      vm,&lt;/span&gt;&lt;/div&gt;&lt;div&gt;&lt;span style=&quot;color: #abb2bf;&quot;&gt;      &lt;/span&gt;&lt;span style=&quot;color: #e06c75;&quot;&gt;el&lt;/span&gt;&lt;span style=&quot;color: #56b6c2;&quot;&gt;:&lt;/span&gt;&lt;span style=&quot;color: #abb2bf;&quot;&gt; node,&lt;/span&gt;&lt;/div&gt;&lt;div&gt;&lt;span style=&quot;color: #abb2bf;&quot;&gt;      &lt;/span&gt;&lt;span style=&quot;color: #e06c75;&quot;&gt;arg&lt;/span&gt;&lt;span style=&quot;color: #56b6c2;&quot;&gt;:&lt;/span&gt;&lt;span style=&quot;color: #abb2bf;&quot;&gt; &lt;/span&gt;&lt;span style=&quot;color: #d19a66;&quot;&gt;undefined&lt;/span&gt;&lt;span style=&quot;color: #abb2bf;&quot;&gt;,&lt;/span&gt;&lt;/div&gt;&lt;div&gt;&lt;span style=&quot;color: #abb2bf;&quot;&gt;      &lt;/span&gt;&lt;span style=&quot;color: #e06c75;&quot;&gt;name&lt;/span&gt;&lt;span style=&quot;color: #56b6c2;&quot;&gt;:&lt;/span&gt;&lt;span style=&quot;color: #abb2bf;&quot;&gt; &lt;/span&gt;&lt;span style=&quot;color: #98c379;&quot;&gt;'slot'&lt;/span&gt;&lt;span style=&quot;color: #abb2bf;&quot;&gt;,&lt;/span&gt;&lt;/div&gt;&lt;div&gt;&lt;span style=&quot;color: #abb2bf;&quot;&gt;      &lt;/span&gt;&lt;span style=&quot;color: #e06c75;&quot;&gt;attr&lt;/span&gt;&lt;span style=&quot;color: #56b6c2;&quot;&gt;:&lt;/span&gt;&lt;span style=&quot;color: #abb2bf;&quot;&gt; &lt;/span&gt;&lt;span style=&quot;color: #d19a66;&quot;&gt;undefined&lt;/span&gt;&lt;span style=&quot;color: #abb2bf;&quot;&gt;,&lt;/span&gt;&lt;/div&gt;&lt;div&gt;&lt;span style=&quot;color: #abb2bf;&quot;&gt;      &lt;/span&gt;&lt;span style=&quot;color: #e06c75;&quot;&gt;expression&lt;/span&gt;&lt;span style=&quot;color: #56b6c2;&quot;&gt;:&lt;/span&gt;&lt;span style=&quot;color: #abb2bf;&quot;&gt; &lt;/span&gt;&lt;span style=&quot;color: #98c379;&quot;&gt;''&lt;/span&gt;&lt;span style=&quot;color: #abb2bf;&quot;&gt;,&lt;/span&gt;&lt;/div&gt;&lt;div&gt;&lt;span style=&quot;color: #abb2bf;&quot;&gt;      &lt;/span&gt;&lt;span style=&quot;color: #e06c75;&quot;&gt;def&lt;/span&gt;&lt;span style=&quot;color: #56b6c2;&quot;&gt;:&lt;/span&gt;&lt;span style=&quot;color: #abb2bf;&quot;&gt; directives.&lt;/span&gt;&lt;span style=&quot;color: #e06c75;&quot;&gt;slot&lt;/span&gt;&lt;/div&gt;&lt;div&gt;&lt;span style=&quot;color: #abb2bf;&quot;&gt;    })&lt;/span&gt;&lt;/div&gt;&lt;/div&gt;" style="text;whiteSpace=wrap;html=1;" vertex="1" parent="1">
                    <mxGeometry x="1275" y="45" width="200" height="210" as="geometry"/>
                </mxCell>
                <mxCell id="32" value="v-on | @" style="edgeStyle=none;html=1;entryX=-0.002;entryY=0.194;entryDx=0;entryDy=0;entryPerimeter=0;" edge="1" parent="1" source="27" target="31">
                    <mxGeometry relative="1" as="geometry"/>
                </mxCell>
                <mxCell id="35" style="edgeStyle=none;html=1;exitX=1;exitY=1;exitDx=0;exitDy=0;entryX=0;entryY=0.5;entryDx=0;entryDy=0;" edge="1" parent="1" source="27" target="34">
                    <mxGeometry relative="1" as="geometry"/>
                </mxCell>
                <mxCell id="37" value="v-bind | :" style="edgeLabel;html=1;align=center;verticalAlign=middle;resizable=0;points=[];" vertex="1" connectable="0" parent="35">
                    <mxGeometry x="-0.2957" y="-2" relative="1" as="geometry">
                        <mxPoint as="offset"/>
                    </mxGeometry>
                </mxCell>
                <mxCell id="39" value="v- 等等" style="edgeStyle=none;html=1;" edge="1" parent="1" source="27" target="38">
                    <mxGeometry relative="1" as="geometry"/>
                </mxCell>
                <mxCell id="27" value="遍历 mode.attributes" style="whiteSpace=wrap;html=1;rounded=1;" vertex="1" parent="1">
                    <mxGeometry x="930" y="210" width="120" height="60" as="geometry"/>
                </mxCell>
                <mxCell id="31" value="&lt;meta charset=&quot;utf-8&quot;&gt;&lt;div style=&quot;color: rgb(171, 178, 191); background-color: rgb(40, 44, 52); font-family: Menlo, Monaco, &amp;quot;Courier New&amp;quot;, monospace; font-weight: normal; font-size: 14px; line-height: 21px;&quot;&gt;&lt;div&gt;&lt;span style=&quot;color: #abb2bf;&quot;&gt;des.&lt;/span&gt;&lt;span style=&quot;color: #61afef;&quot;&gt;push&lt;/span&gt;&lt;span style=&quot;color: #abb2bf;&quot;&gt;({&lt;/span&gt;&lt;/div&gt;&lt;div&gt;&lt;span style=&quot;color: #abb2bf;&quot;&gt;          vm,&lt;/span&gt;&lt;/div&gt;&lt;div&gt;&lt;span style=&quot;color: #abb2bf;&quot;&gt;          &lt;/span&gt;&lt;span style=&quot;color: #e06c75;&quot;&gt;el&lt;/span&gt;&lt;span style=&quot;color: #56b6c2;&quot;&gt;:&lt;/span&gt;&lt;span style=&quot;color: #abb2bf;&quot;&gt; node,&lt;/span&gt;&lt;/div&gt;&lt;div&gt;&lt;span style=&quot;color: #abb2bf;&quot;&gt;          &lt;/span&gt;&lt;span style=&quot;color: #e06c75;&quot;&gt;arg&lt;/span&gt;&lt;span style=&quot;color: #56b6c2;&quot;&gt;:&lt;/span&gt;&lt;span style=&quot;color: #abb2bf;&quot;&gt; name.&lt;/span&gt;&lt;span style=&quot;color: #61afef;&quot;&gt;replace&lt;/span&gt;&lt;span style=&quot;color: #abb2bf;&quot;&gt;(onRe, &lt;/span&gt;&lt;span style=&quot;color: #98c379;&quot;&gt;''&lt;/span&gt;&lt;span style=&quot;color: #abb2bf;&quot;&gt;),&lt;/span&gt;&lt;/div&gt;&lt;div&gt;&lt;span style=&quot;color: #abb2bf;&quot;&gt;          &lt;/span&gt;&lt;span style=&quot;color: #e06c75;&quot;&gt;name&lt;/span&gt;&lt;span style=&quot;color: #56b6c2;&quot;&gt;:&lt;/span&gt;&lt;span style=&quot;color: #abb2bf;&quot;&gt; &lt;/span&gt;&lt;span style=&quot;color: #98c379;&quot;&gt;'on'&lt;/span&gt;&lt;span style=&quot;color: #abb2bf;&quot;&gt;,&lt;/span&gt;&lt;/div&gt;&lt;div&gt;&lt;span style=&quot;color: #abb2bf;&quot;&gt;          &lt;/span&gt;&lt;span style=&quot;color: #e06c75;&quot;&gt;attr&lt;/span&gt;&lt;span style=&quot;color: #56b6c2;&quot;&gt;:&lt;/span&gt;&lt;span style=&quot;color: #abb2bf;&quot;&gt; name,&lt;/span&gt;&lt;/div&gt;&lt;div&gt;&lt;span style=&quot;color: #abb2bf;&quot;&gt;          &lt;/span&gt;&lt;span style=&quot;color: #e06c75;&quot;&gt;expression&lt;/span&gt;&lt;span style=&quot;color: #56b6c2;&quot;&gt;:&lt;/span&gt;&lt;span style=&quot;color: #abb2bf;&quot;&gt; value,&lt;/span&gt;&lt;/div&gt;&lt;div&gt;&lt;span style=&quot;color: #abb2bf;&quot;&gt;          &lt;/span&gt;&lt;span style=&quot;color: #e06c75;&quot;&gt;def&lt;/span&gt;&lt;span style=&quot;color: #56b6c2;&quot;&gt;:&lt;/span&gt;&lt;span style=&quot;color: #abb2bf;&quot;&gt; directives.&lt;/span&gt;&lt;span style=&quot;color: #e06c75;&quot;&gt;on&lt;/span&gt;&lt;/div&gt;&lt;div&gt;&lt;span style=&quot;color: #abb2bf;&quot;&gt;        })&lt;/span&gt;&lt;/div&gt;&lt;/div&gt;" style="text;whiteSpace=wrap;html=1;" vertex="1" parent="1">
                    <mxGeometry x="1230" y="255" width="270" height="210" as="geometry"/>
                </mxCell>
                <mxCell id="34" value="&lt;meta charset=&quot;utf-8&quot;&gt;&lt;div style=&quot;color: rgb(171, 178, 191); background-color: rgb(40, 44, 52); font-family: Menlo, Monaco, &amp;quot;Courier New&amp;quot;, monospace; font-weight: normal; font-size: 14px; line-height: 21px;&quot;&gt;&lt;div&gt;&lt;span style=&quot;color: #abb2bf;&quot;&gt;{&lt;/span&gt;&lt;/div&gt;&lt;div&gt;&lt;span style=&quot;color: #abb2bf;&quot;&gt;          vm,&lt;/span&gt;&lt;/div&gt;&lt;div&gt;&lt;span style=&quot;color: #abb2bf;&quot;&gt;          &lt;/span&gt;&lt;span style=&quot;color: #e06c75;&quot;&gt;el&lt;/span&gt;&lt;span style=&quot;color: #56b6c2;&quot;&gt;:&lt;/span&gt;&lt;span style=&quot;color: #abb2bf;&quot;&gt; node,&lt;/span&gt;&lt;/div&gt;&lt;div&gt;&lt;span style=&quot;color: #abb2bf;&quot;&gt;          &lt;/span&gt;&lt;span style=&quot;color: #e06c75;&quot;&gt;arg&lt;/span&gt;&lt;span style=&quot;color: #56b6c2;&quot;&gt;:&lt;/span&gt;&lt;span style=&quot;color: #abb2bf;&quot;&gt; name.&lt;/span&gt;&lt;span style=&quot;color: #61afef;&quot;&gt;replace&lt;/span&gt;&lt;span style=&quot;color: #abb2bf;&quot;&gt;(bindRe, &lt;/span&gt;&lt;span style=&quot;color: #98c379;&quot;&gt;''&lt;/span&gt;&lt;span style=&quot;color: #abb2bf;&quot;&gt;),&lt;/span&gt;&lt;/div&gt;&lt;div&gt;&lt;span style=&quot;color: #abb2bf;&quot;&gt;          &lt;/span&gt;&lt;span style=&quot;color: #e06c75;&quot;&gt;name&lt;/span&gt;&lt;span style=&quot;color: #56b6c2;&quot;&gt;:&lt;/span&gt;&lt;span style=&quot;color: #abb2bf;&quot;&gt; &lt;/span&gt;&lt;span style=&quot;color: #98c379;&quot;&gt;'bind'&lt;/span&gt;&lt;span style=&quot;color: #abb2bf;&quot;&gt;,&lt;/span&gt;&lt;/div&gt;&lt;div&gt;&lt;span style=&quot;color: #abb2bf;&quot;&gt;          &lt;/span&gt;&lt;span style=&quot;color: #e06c75;&quot;&gt;attr&lt;/span&gt;&lt;span style=&quot;color: #56b6c2;&quot;&gt;:&lt;/span&gt;&lt;span style=&quot;color: #abb2bf;&quot;&gt; name,&lt;/span&gt;&lt;/div&gt;&lt;div&gt;&lt;span style=&quot;color: #abb2bf;&quot;&gt;          &lt;/span&gt;&lt;span style=&quot;color: #e06c75;&quot;&gt;def&lt;/span&gt;&lt;span style=&quot;color: #56b6c2;&quot;&gt;:&lt;/span&gt;&lt;span style=&quot;color: #abb2bf;&quot;&gt; directives.&lt;/span&gt;&lt;span style=&quot;color: #e06c75;&quot;&gt;bind&lt;/span&gt;&lt;/div&gt;&lt;div&gt;&lt;span style=&quot;color: #abb2bf;&quot;&gt;        }&lt;/span&gt;&lt;/div&gt;&lt;/div&gt;" style="text;whiteSpace=wrap;html=1;" vertex="1" parent="1">
                    <mxGeometry x="1220" y="460" width="290" height="190" as="geometry"/>
                </mxCell>
                <mxCell id="36" value="" style="shape=stencil(lVrZchw3DPyafWXxAEHy2XH+w1WWI1UUySUr198HzBZnh82ZXvltNQJmSByNBshL+vTj8cv3h0v0P97fXn9/+Pvp6/vjJf1yifHp5fHh7endfl3S50v69O317eG3t9c/X75e//7+pUv2X3+8/tXf8M9VL3jvvO9q0f97faTZRfn/ya9Xjeenl51Ga67KrFBc/5MopDQrNOcLUagutEmhBOcDUciuzV8oycVMFKLTOCtkp2RJtTqBL9Sxq2MFW8C8hxqolUpxaV5SFReVKHhXw6xgfiB7UEFPN+8CMWsuLsyeNrsVsunsXSmzgrhGviD279lKTZ0Sx6Ul+FpxjSlkl/KsUF0lZk3B5dnTFr9CzBrrCLWdQiUJFG1JOinskvBYI7rq8RONbCJ6JxUVCnFEUJcEzcQSIohLAR1RyK5DdAJfUP4F7/JsJktzIV+wBUMspQELx/ng2pxwFt2BhJLBItjU0od4LaHTLD8r87LLc/LUPCDh2EBO4f08Ow0v4P086iyG5vcbRDG42MBkkxdqz6XwGMqH+hPvV6sTJAm8S2tho+sHe6rFAwvQUZOGfLayxjLA5TkBcnaV7DeOerHJm3+JfBpfH/LS7si3OR5EXSXxZlgN77+XX37OFzGLsYKGNCFZiWU12SnImz0bBRRwWEoD648VAtYOKw40I81Bs0JsNKQNRcNsI7OCZ3vISFwMllhShjJsvikkSu+CMZ0ZRi1wE1lSz+PZD6GNSD9WMOCC+melg5jVViyz48wMjSksUB04FJnVgXH2csWKflu+sNGxU1oBJZzSQQtNQGteXpNirNoDlvx15MqGLhRMLXfz7AOhHN6YnZ/fn1xg4KKjdm1hNwj0sXwb5HhzgFPGZW394GHnWbFPSGWNjhB7GleuKM+KqwZkK55GaK9dEeQZA7TamABZBpk/Bt+ASJRGwB7LL/2NjPJ5LJ9Hit/ik8VDKShfnLL1G0kHtkjj07gPxL8lsLCGLiBdNIhgTenaAYZEXVYTdrHGyhnBrBtf3RS2mnhqpIgKjDKWJSsNqitTkKW3UdqflQUX+6ZJ4vfAnmmIFYPMMiEPYNgVA8pbMlbx3oqQ2NM2+u59LDGmEwfR2ik0Eq2WDR4UwsCns/BusAfjJiyW0mjUd9HKAK+qk4xmFaZgiKqowEpmFZyI2B6UJVBerOTHkzMFnfdQRs9zJg8U2EKPvV8Xxsk7WMWE5ozf5KFFjpRuWgMKIB8o8TL5hkWWrr8ucc0ZfFuY4GAZx2M7P5joTZ7NctqSBZGupwVM5ESLuMkn9C8baZg8tkS0n2hLSyqDZZzZE5J4I8Jn8sGDvBDsNf9GjH8qX7DeZDqhtHgu8jP7VSSB21TqNB+hZeSAsrSwccwrTzHRXz4eb1UXlKbxbPZUjH+WL+YvmGXezcclv1i+9wEYFD6KJyZfoLektd7yJaA8w8Oej+hfYccAR/JsvwFHLEr7UNsvjPTaPftDfQmRdommgBxThonPIgJbaaXMo+aF29TRaZ6RUiTWhY6eOxP3qMCqdimIErYHNtKwXqVCmlndZqTUj95hp8CYuOrI250fGLIYi8WhiR+LPFtSBYUwXHnaoGVUYOPGknFAfxvZn/oBHMd7fGs/dBnLMI5ZKtYn8zTddBn196NfUJx22aZpv5KX0AiUM5ZleMWPbqwhwmM9eiJmzUdGDssGOVrQzZkCgApyCo4wGrE/S7SG54ZRlOjgKityxjvyEQcJwgc/fh10sSGxbIcQu0EaSQLJAw1v8sw+kpBjKq2xsgw2+HA1VYyfSjv8pAuu+MGSjhUESVTPGLaiiAdDPSfZbHWdQAvtv+NywcBwhQVFXIhdKLSd7kkCdbbRTffxKFDHQAd2cRlo9lNidpzkly8IPxOuy1mDUrofCqZCrDQ3+2kGDIk9PWswv0LwWbCwqZ1FDpR+C8fMvhAQHhM/FbPoD7OVUqOktuKgWAKfweHYRIQOHRQ5tpQxkzsGvBE1Gx55yqby0jMmfnIwDlI2eb0jDxw7N9o0Jsy0XoEYgGHF10ybxoQTTeNukR77Q/3rl5fo+vMcP8YYGn0/zKHLnYKAc7rSaI5lxMbKeaN5cwbffm+JcTQ8Oauc01Wc0fUehsRPL0dwD8TTy2BhQVLr8xjF6TQXbvxw4ntwu4YPQnqxgNNC7uTboGpTKLTFiUtf1zagOVZYZoFdgdX9sPih0CMiQ+ZSUSGwTG4Yeo03giKL44SScWk40DRPR3YDbpkYNX7pwcAKLrT18OaHDYAX1qKzilYWgK/bTaPjhAvYRBlisLPAPoYGyFO6pLZeLeKY15Zmtp8bsUlrxtBQfhmm5xfAvNLQ6LE5+8HqCL2kWkbZ2BSEHum3slQeoX7oKV9RITI/LIfWpsAybr2Z2y+VcgUIDU10hNpvZy57YNOg1ka12e+B+aHhiaPyi7b96qSgAqtA/XLm6mnmuIbXYJXj0s/f2v6Ihv24XRP/9vT8fL1lvv8/Xiu3R9cr6enzfw==);lineShape=1;" vertex="1" parent="1">
                    <mxGeometry x="880.0021528038085" y="177.65385131292064" width="111.20992379867721" height="142.3484349092373" as="geometry"/>
                </mxCell>
                <mxCell id="38" value="..." style="text;html=1;align=center;verticalAlign=middle;resizable=0;points=[];autosize=1;strokeColor=none;fillColor=none;" vertex="1" parent="1">
                    <mxGeometry x="1220" y="660" width="30" height="30" as="geometry"/>
                </mxCell>
                <mxCell id="52" style="edgeStyle=none;html=1;fontSize=18;entryX=0.5;entryY=0;entryDx=0;entryDy=0;" edge="1" parent="1" source="44" target="53">
                    <mxGeometry relative="1" as="geometry">
                        <mxPoint x="610" y="450" as="targetPoint"/>
                    </mxGeometry>
                </mxCell>
                <mxCell id="44" value="遍历des" style="whiteSpace=wrap;html=1;rounded=1;" vertex="1" parent="1">
                    <mxGeometry x="630" y="320" width="120" height="60" as="geometry"/>
                </mxCell>
                <mxCell id="51" value="" style="shape=stencil(fZbdcgIhDIWfZm8zQAg/17Z9j85U606tdqz9e/tmZ0c0uJ47xP0I5JwEBl59bp8/1kNwn6fj4W39M76ctgM/DCGM++36OJ50NPDjwKvN4bh+PR6+9i/z74/n6ctp9H74nlb4nbmSKZeJCu5vngmZ6jzzNAO7cX8FVKEsBuBKrgKg9oAE8gkCbLeUhEoEQKSUDZDLeWYRKIl8MEDRmHwfyBrBG6Amyu4+kDxxMoB3jhwgYu7TVAsVkFcWCs4CTBEoF4RctKeOxHIf8IXYpikHikAIf+MNUW94AGSSaoAoFIE3AlOyeWU+p2E5S9yfQZcQILVuQOwZdJNoS9Ls3wA5u2XZTIHECqeJ9kDpSaauRiNVcAY1QhdBzeLBli5WazpkSsBLV25uRaqWRyFawTQzRRIQYirJzq5atkBqLfouwqUxLBepthWb10vrWZY6UOAeyKCCtDV625mm9gmUC4Wc3VLJMMIE1BsA2FW9JraVlQB7n3c9oMKhCLEvIM1zBPZ25/umNQ1tVEC2G+fFCC8g398O2hNQuQlVu752DBfA+q0ptnqO5JFmeuIuo9DY7KjY71UxdJV4EntifPWorW++R/dC4t7V3DlIB5cHx2bc7eb3yvX//QNFp+bHDT/+Aw==);lineShape=1;fontSize=18;" vertex="1" parent="1">
                    <mxGeometry x="817.7199397576551" y="476.1198795560754" width="7.188522726331099" height="7.177286486703451" as="geometry"/>
                </mxCell>
                <mxCell id="54" value="" style="edgeStyle=none;html=1;fontSize=18;entryX=0;entryY=0.75;entryDx=0;entryDy=0;" edge="1" parent="1" source="53" target="55">
                    <mxGeometry relative="1" as="geometry"/>
                </mxCell>
                <mxCell id="53" value="&lt;div style=&quot;color: rgb(171, 178, 191); background-color: rgb(40, 44, 52); font-family: Menlo, Monaco, &amp;quot;Courier New&amp;quot;, monospace; font-size: 14px; line-height: 21px;&quot;&gt;dir &lt;span style=&quot;color: #56b6c2;&quot;&gt;=&lt;/span&gt; &lt;span style=&quot;color: #c678dd;&quot;&gt;new&lt;/span&gt; &lt;span style=&quot;color: #61afef;&quot;&gt;Directive&lt;/span&gt;(descriptor&lt;span style=&quot;color: #56b6c2;&quot;&gt;!&lt;/span&gt;, descriptor&lt;span style=&quot;color: #56b6c2;&quot;&gt;!&lt;/span&gt;.&lt;span style=&quot;color: #e06c75;&quot;&gt;vm&lt;/span&gt;)&lt;/div&gt;" style="whiteSpace=wrap;html=1;fontSize=18;" vertex="1" parent="1">
                    <mxGeometry x="460" y="439.71" width="220" height="70" as="geometry"/>
                </mxCell>
                <mxCell id="57" style="edgeStyle=none;html=1;entryX=1;entryY=1;entryDx=0;entryDy=0;fontSize=18;" edge="1" parent="1" source="55" target="44">
                    <mxGeometry relative="1" as="geometry"/>
                </mxCell>
                <mxCell id="59" value="" style="edgeStyle=none;html=1;fontSize=18;" edge="1" parent="1" source="55" target="58">
                    <mxGeometry relative="1" as="geometry"/>
                </mxCell>
                <mxCell id="55" value="&lt;div style=&quot;color: rgb(171, 178, 191); background-color: rgb(40, 44, 52); font-family: Menlo, Monaco, &amp;quot;Courier New&amp;quot;, monospace; line-height: 21px;&quot;&gt;&lt;font style=&quot;font-size: 24px;&quot;&gt; dir.&lt;span style=&quot;color: rgb(97, 175, 239);&quot;&gt;_bind&lt;/span&gt;()&lt;/font&gt;&lt;/div&gt;" style="whiteSpace=wrap;html=1;fontSize=18;" vertex="1" parent="1">
                    <mxGeometry x="797.37" y="430" width="175.09" height="70" as="geometry"/>
                </mxCell>
                <mxCell id="61" style="edgeStyle=none;html=1;exitX=0.5;exitY=1;exitDx=0;exitDy=0;entryX=0.5;entryY=0;entryDx=0;entryDy=0;fontSize=24;" edge="1" parent="1" source="58" target="60">
                    <mxGeometry relative="1" as="geometry"/>
                </mxCell>
                <mxCell id="67" style="edgeStyle=none;html=1;exitX=1;exitY=0.5;exitDx=0;exitDy=0;entryX=-0.024;entryY=0.517;entryDx=0;entryDy=0;entryPerimeter=0;fontSize=24;" edge="1" parent="1" source="58" target="66">
                    <mxGeometry relative="1" as="geometry"/>
                </mxCell>
                <mxCell id="58" value="执行&lt;font style=&quot;font-size: 18px;&quot;&gt;&amp;nbsp;&lt;span style=&quot;color: rgb(171, 178, 191); font-family: Menlo, Monaco, &amp;quot;Courier New&amp;quot;, monospace; background-color: rgb(40, 44, 52);&quot;&gt;directives 的 bind()&lt;/span&gt;&lt;/font&gt;" style="whiteSpace=wrap;html=1;fontSize=18;align=center;" vertex="1" parent="1">
                    <mxGeometry x="787.37" y="570" width="195.09" height="50" as="geometry"/>
                </mxCell>
                <mxCell id="63" style="edgeStyle=none;html=1;exitX=1;exitY=0.25;exitDx=0;exitDy=0;fontSize=24;" edge="1" parent="1" source="60" target="62">
                    <mxGeometry relative="1" as="geometry"/>
                </mxCell>
                <mxCell id="65" value="" style="edgeStyle=none;html=1;fontSize=24;" edge="1" parent="1" source="60" target="64">
                    <mxGeometry relative="1" as="geometry"/>
                </mxCell>
                <mxCell id="60" value="new Watcher" style="whiteSpace=wrap;html=1;fontSize=18;fillColor=#1ba1e2;fontColor=#ffffff;strokeColor=#006EAF;" vertex="1" parent="1">
                    <mxGeometry x="824.91" y="690" width="120" height="60" as="geometry"/>
                </mxCell>
                <mxCell id="62" value="&lt;div style=&quot;color: rgb(171, 178, 191); background-color: rgb(40, 44, 52); font-family: Menlo, Monaco, &amp;quot;Courier New&amp;quot;, monospace; font-weight: normal; font-size: 14px; line-height: 21px;&quot;&gt;&lt;div&gt;&lt;span style=&quot;color: #abb2bf;&quot;&gt; &lt;/span&gt;&lt;span style=&quot;color: #c678dd;&quot;&gt;const&lt;/span&gt;&lt;span style=&quot;color: #abb2bf;&quot;&gt; &lt;/span&gt;&lt;span style=&quot;color: #d19a66;&quot;&gt;watcher&lt;/span&gt;&lt;span style=&quot;color: #abb2bf;&quot;&gt; &lt;/span&gt;&lt;span style=&quot;color: #56b6c2;&quot;&gt;=&lt;/span&gt;&lt;span style=&quot;color: #abb2bf;&quot;&gt; (&lt;/span&gt;&lt;span style=&quot;color: #e06c75;&quot;&gt;this&lt;/span&gt;&lt;span style=&quot;color: #abb2bf;&quot;&gt;.&lt;/span&gt;&lt;span style=&quot;color: #e06c75;&quot;&gt;_watcher&lt;/span&gt;&lt;span style=&quot;color: #abb2bf;&quot;&gt; &lt;/span&gt;&lt;span style=&quot;color: #56b6c2;&quot;&gt;=&lt;/span&gt;&lt;span style=&quot;color: #abb2bf;&quot;&gt; &lt;/span&gt;&lt;span style=&quot;color: #c678dd;&quot;&gt;new&lt;/span&gt;&lt;span style=&quot;color: #abb2bf;&quot;&gt; &lt;/span&gt;&lt;span style=&quot;color: #61afef;&quot;&gt;Watcher&lt;/span&gt;&lt;span style=&quot;color: #abb2bf;&quot;&gt;(&lt;/span&gt;&lt;/div&gt;&lt;div&gt;&lt;span style=&quot;color: #abb2bf;&quot;&gt;        &lt;/span&gt;&lt;span style=&quot;color: #e06c75;&quot;&gt;this&lt;/span&gt;&lt;span style=&quot;color: #abb2bf;&quot;&gt;.&lt;/span&gt;&lt;span style=&quot;color: #e06c75;&quot;&gt;vm&lt;/span&gt;&lt;span style=&quot;color: #abb2bf;&quot;&gt;,&lt;/span&gt;&lt;/div&gt;&lt;div&gt;&lt;span style=&quot;color: #abb2bf;&quot;&gt;        &lt;/span&gt;&lt;span style=&quot;color: #e06c75;&quot;&gt;this&lt;/span&gt;&lt;span style=&quot;color: #abb2bf;&quot;&gt;.&lt;/span&gt;&lt;span style=&quot;color: #e06c75;&quot;&gt;expression&lt;/span&gt;&lt;span style=&quot;color: #abb2bf;&quot;&gt;,&lt;/span&gt;&lt;/div&gt;&lt;div&gt;&lt;span style=&quot;color: #abb2bf;&quot;&gt;        &lt;/span&gt;&lt;span style=&quot;color: #e06c75;&quot;&gt;this&lt;/span&gt;&lt;span style=&quot;color: #abb2bf;&quot;&gt;.&lt;/span&gt;&lt;span style=&quot;color: #e06c75;&quot;&gt;_update-&amp;gt;direstives.update&lt;/span&gt;&lt;span style=&quot;color: #abb2bf;&quot;&gt;,&lt;/span&gt;&lt;/div&gt;&lt;div&gt;&lt;span style=&quot;color: #abb2bf;&quot;&gt;        { &lt;/span&gt;&lt;span style=&quot;color: #e06c75;&quot;&gt;filters&lt;/span&gt;&lt;span style=&quot;color: #56b6c2;&quot;&gt;:&lt;/span&gt;&lt;span style=&quot;color: #abb2bf;&quot;&gt; &lt;/span&gt;&lt;span style=&quot;color: #e06c75;&quot;&gt;this&lt;/span&gt;&lt;span style=&quot;color: #abb2bf;&quot;&gt;.&lt;/span&gt;&lt;span style=&quot;color: #e06c75;&quot;&gt;filters&lt;/span&gt;&lt;span style=&quot;color: #abb2bf;&quot;&gt; }&lt;/span&gt;&lt;/div&gt;&lt;div&gt;&lt;span style=&quot;color: #abb2bf;&quot;&gt;      ))&lt;/span&gt;&lt;/div&gt;&lt;/div&gt;" style="text;whiteSpace=wrap;html=1;fontSize=24;" vertex="1" parent="1">
                    <mxGeometry x="350" y="660" width="380" height="150" as="geometry"/>
                </mxCell>
                <mxCell id="69" style="edgeStyle=none;html=1;exitX=1;exitY=0.5;exitDx=0;exitDy=0;fontSize=24;" edge="1" parent="1" source="64" target="68">
                    <mxGeometry relative="1" as="geometry"/>
                </mxCell>
                <mxCell id="64" value="执行&amp;nbsp;&lt;span style=&quot;color: rgb(171, 178, 191); font-family: Menlo, Monaco, &amp;quot;Courier New&amp;quot;, monospace; background-color: rgb(40, 44, 52);&quot;&gt;directives 的 update(watcher.value)&lt;/span&gt;" style="whiteSpace=wrap;html=1;fontSize=18;" vertex="1" parent="1">
                    <mxGeometry x="757.36" y="820" width="255.09" height="60" as="geometry"/>
                </mxCell>
                <mxCell id="66" value="处理数据" style="text;html=1;align=center;verticalAlign=middle;resizable=0;points=[];autosize=1;strokeColor=none;fillColor=none;fontSize=24;" vertex="1" parent="1">
                    <mxGeometry x="1020" y="575" width="120" height="40" as="geometry"/>
                </mxCell>
                <mxCell id="68" value="更新页面" style="text;html=1;align=center;verticalAlign=middle;resizable=0;points=[];autosize=1;strokeColor=none;fillColor=none;fontSize=24;" vertex="1" parent="1">
                    <mxGeometry x="1030" y="830" width="120" height="40" as="geometry"/>
                </mxCell>
                <mxCell id="73" style="edgeStyle=none;html=1;fontSize=24;" edge="1" parent="1" source="70" target="72">
                    <mxGeometry relative="1" as="geometry"/>
                </mxCell>
                <mxCell id="142" value="&lt;span style=&quot;background-color: rgb(240, 49, 15);&quot;&gt;执行属性的get&lt;/span&gt;" style="edgeLabel;html=1;align=center;verticalAlign=middle;resizable=0;points=[];fontSize=24;labelBackgroundColor=#f00f3c;" vertex="1" connectable="0" parent="73">
                    <mxGeometry x="-0.0064" y="1" relative="1" as="geometry">
                        <mxPoint as="offset"/>
                    </mxGeometry>
                </mxCell>
                <mxCell id="74" style="edgeStyle=none;html=1;entryX=0;entryY=0.75;entryDx=0;entryDy=0;fontSize=24;" edge="1" parent="1" source="70" target="71">
                    <mxGeometry relative="1" as="geometry"/>
                </mxCell>
                <mxCell id="78" value="getter" style="edgeLabel;html=1;align=center;verticalAlign=middle;resizable=0;points=[];fontSize=24;" vertex="1" connectable="0" parent="74">
                    <mxGeometry x="-0.0953" y="2" relative="1" as="geometry">
                        <mxPoint as="offset"/>
                    </mxGeometry>
                </mxCell>
                <mxCell id="76" style="edgeStyle=none;html=1;entryX=0;entryY=0.25;entryDx=0;entryDy=0;fontSize=24;" edge="1" parent="1" source="70" target="75">
                    <mxGeometry relative="1" as="geometry"/>
                </mxCell>
                <mxCell id="79" value="setter" style="edgeLabel;html=1;align=center;verticalAlign=middle;resizable=0;points=[];fontSize=24;" vertex="1" connectable="0" parent="76">
                    <mxGeometry x="-0.2713" y="-1" relative="1" as="geometry">
                        <mxPoint x="4" as="offset"/>
                    </mxGeometry>
                </mxCell>
                <mxCell id="123" style="edgeStyle=none;html=1;exitX=0.045;exitY=0.763;exitDx=0;exitDy=0;fontSize=24;startArrow=none;exitPerimeter=0;" edge="1" parent="1" source="70">
                    <mxGeometry relative="1" as="geometry">
                        <mxPoint x="1580" y="750" as="targetPoint"/>
                    </mxGeometry>
                </mxCell>
                <mxCell id="135" style="edgeStyle=none;html=1;exitX=1;exitY=0;exitDx=0;exitDy=0;entryX=0;entryY=0.5;entryDx=0;entryDy=0;strokeColor=#FFFFFF;fontSize=24;" edge="1" parent="1" source="70" target="134">
                    <mxGeometry relative="1" as="geometry"/>
                </mxCell>
                <mxCell id="136" value="属性" style="edgeLabel;html=1;align=center;verticalAlign=middle;resizable=0;points=[];fontSize=24;" vertex="1" connectable="0" parent="135">
                    <mxGeometry x="-0.0621" y="2" relative="1" as="geometry">
                        <mxPoint x="-1" as="offset"/>
                    </mxGeometry>
                </mxCell>
                <mxCell id="153" style="edgeStyle=none;html=1;exitX=0;exitY=1;exitDx=0;exitDy=0;strokeColor=#FFFFFF;fontSize=24;fontColor=#FFFFFF;entryX=0.5;entryY=0;entryDx=0;entryDy=0;" edge="1" parent="1" source="70" target="152">
                    <mxGeometry relative="1" as="geometry">
                        <mxPoint x="1750" y="880" as="targetPoint"/>
                    </mxGeometry>
                </mxCell>
                <mxCell id="70" value="watcher(vm,expression,cb)" style="ellipse;whiteSpace=wrap;html=1;fontSize=24;fillColor=#1ba1e2;fontColor=#ffffff;strokeColor=#006EAF;" vertex="1" parent="1">
                    <mxGeometry x="1610" y="180" width="310" height="80" as="geometry"/>
                </mxCell>
                <mxCell id="71" value="&lt;div style=&quot;color: rgb(171, 178, 191); background-color: rgb(40, 44, 52); font-family: Menlo, Monaco, &amp;quot;Courier New&amp;quot;, monospace; font-weight: normal; font-size: 14px; line-height: 21px;&quot;&gt;&lt;span style=&quot;color: #c678dd;&quot;&gt;this.getter = return&lt;/span&gt;&lt;span style=&quot;color: #abb2bf;&quot;&gt; &lt;/span&gt;&lt;span style=&quot;color: #c678dd;&quot;&gt;new&lt;/span&gt;&lt;span style=&quot;color: #abb2bf;&quot;&gt; &lt;/span&gt;&lt;span style=&quot;color: #e5c07b;&quot;&gt;Function&lt;/span&gt;&lt;span style=&quot;color: #abb2bf;&quot;&gt;(&lt;/span&gt;&lt;span style=&quot;color: #98c379;&quot;&gt;'vm'&lt;/span&gt;&lt;span style=&quot;color: #abb2bf;&quot;&gt;, &lt;/span&gt;&lt;span style=&quot;color: #98c379;&quot;&gt;'return vm.'&lt;/span&gt;&lt;span style=&quot;color: #abb2bf;&quot;&gt; &lt;/span&gt;&lt;span style=&quot;color: #56b6c2;&quot;&gt;+&lt;/span&gt;&lt;span style=&quot;color: #abb2bf;&quot;&gt;&amp;nbsp;&lt;/span&gt;&lt;span style=&quot;&quot;&gt;expression&lt;/span&gt;)&lt;br&gt;&lt;/div&gt;" style="text;whiteSpace=wrap;html=1;fontSize=24;" vertex="1" parent="1">
                    <mxGeometry x="1920" y="270" width="420" height="40" as="geometry"/>
                </mxCell>
                <mxCell id="81" style="edgeStyle=none;html=1;entryX=-0.024;entryY=0.2;entryDx=0;entryDy=0;entryPerimeter=0;fontSize=24;" edge="1" parent="1" source="72" target="80">
                    <mxGeometry relative="1" as="geometry"/>
                </mxCell>
                <mxCell id="85" style="edgeStyle=none;html=1;exitX=0;exitY=0.25;exitDx=0;exitDy=0;entryX=1;entryY=0.75;entryDx=0;entryDy=0;fontSize=24;" edge="1" parent="1" source="72" target="82">
                    <mxGeometry relative="1" as="geometry"/>
                </mxCell>
                <mxCell id="86" style="edgeStyle=none;html=1;exitX=0;exitY=0.75;exitDx=0;exitDy=0;fontSize=24;" edge="1" parent="1" source="72" target="84">
                    <mxGeometry relative="1" as="geometry"/>
                </mxCell>
                <mxCell id="72" value="&lt;div style=&quot;color: rgb(171, 178, 191); background-color: rgb(40, 44, 52); font-family: Menlo, Monaco, &amp;quot;Courier New&amp;quot;, monospace; font-size: 14px; line-height: 21px;&quot;&gt;&lt;span style=&quot;color: #e06c75;&quot;&gt;this&lt;/span&gt;.&lt;span style=&quot;color: #e06c75;&quot;&gt;value&lt;/span&gt; &lt;span style=&quot;color: #56b6c2;&quot;&gt;=&lt;/span&gt; &lt;span style=&quot;color: #e06c75;&quot;&gt;this&lt;/span&gt;.&lt;span style=&quot;color: #61afef;&quot;&gt;get&lt;/span&gt;()&lt;/div&gt;" style="whiteSpace=wrap;html=1;fontSize=24;" vertex="1" parent="1">
                    <mxGeometry x="1685" y="500" width="210" height="50" as="geometry"/>
                </mxCell>
                <mxCell id="75" value="&lt;div style=&quot;color: rgb(171, 178, 191); background-color: rgb(40, 44, 52); font-family: Menlo, Monaco, &amp;quot;Courier New&amp;quot;, monospace; font-weight: normal; font-size: 14px; line-height: 21px;&quot;&gt;&lt;div&gt;&lt;span style=&quot;color: #e06c75;&quot;&gt;this&lt;/span&gt;&lt;span style=&quot;color: #abb2bf;&quot;&gt;.&lt;/span&gt;&lt;span style=&quot;color: #61afef;&quot;&gt;setter&lt;/span&gt;&lt;span style=&quot;color: #abb2bf;&quot;&gt; &lt;/span&gt;&lt;span style=&quot;color: #56b6c2;&quot;&gt;=&lt;/span&gt;&lt;span style=&quot;color: #abb2bf;&quot;&gt; (value&lt;/span&gt;&lt;span style=&quot;color: #56b6c2;&quot;&gt;:&lt;/span&gt;&lt;span style=&quot;color: #abb2bf;&quot;&gt; &lt;/span&gt;&lt;span style=&quot;color: #56b6c2;&quot;&gt;any&lt;/span&gt;&lt;span style=&quot;color: #abb2bf;&quot;&gt;) &lt;/span&gt;&lt;span style=&quot;color: #c678dd;&quot;&gt;=&amp;gt;&lt;/span&gt;&lt;span style=&quot;color: #abb2bf;&quot;&gt; {&lt;/span&gt;vm[expression] &lt;span style=&quot;color: rgb(86, 182, 194);&quot;&gt;=&lt;/span&gt; value}&lt;/div&gt;&lt;/div&gt;" style="text;whiteSpace=wrap;html=1;fontSize=24;" vertex="1" parent="1">
                    <mxGeometry x="1870" y="359.71" width="420" height="50" as="geometry"/>
                </mxCell>
                <mxCell id="80" value="&lt;div style=&quot;color: rgb(171, 178, 191); background-color: rgb(40, 44, 52); font-family: Menlo, Monaco, &amp;quot;Courier New&amp;quot;, monospace; font-weight: normal; font-size: 14px; line-height: 21px;&quot;&gt;&lt;div&gt;&lt;span style=&quot;color: #61afef;&quot;&gt;get&lt;/span&gt;&lt;span style=&quot;color: #abb2bf;&quot;&gt;() {&lt;/span&gt;&lt;/div&gt;&lt;div&gt;&lt;span style=&quot;color: #abb2bf;&quot;&gt;    &lt;/span&gt;&lt;span style=&quot;color: #c678dd;&quot;&gt;const&lt;/span&gt;&lt;span style=&quot;color: #abb2bf;&quot;&gt; &lt;/span&gt;&lt;span style=&quot;color: #d19a66;&quot;&gt;vm&lt;/span&gt;&lt;span style=&quot;color: #abb2bf;&quot;&gt; &lt;/span&gt;&lt;span style=&quot;color: #56b6c2;&quot;&gt;=&lt;/span&gt;&lt;span style=&quot;color: #abb2bf;&quot;&gt; &lt;/span&gt;&lt;span style=&quot;color: #e06c75;&quot;&gt;this&lt;/span&gt;&lt;span style=&quot;color: #abb2bf;&quot;&gt;.&lt;/span&gt;&lt;span style=&quot;color: #e06c75;&quot;&gt;vm&lt;/span&gt;&lt;/div&gt;&lt;div&gt;&lt;span style=&quot;color: #abb2bf;&quot;&gt;    Dep.&lt;/span&gt;&lt;span style=&quot;color: #e06c75;&quot;&gt;target&lt;/span&gt;&lt;span style=&quot;color: #abb2bf;&quot;&gt; &lt;/span&gt;&lt;span style=&quot;color: #56b6c2;&quot;&gt;=&lt;/span&gt;&lt;span style=&quot;color: #abb2bf;&quot;&gt; &lt;/span&gt;&lt;span style=&quot;color: #e06c75;&quot;&gt;this&lt;/span&gt;&lt;/div&gt;&lt;div&gt;&lt;span style=&quot;color: #abb2bf;&quot;&gt;    &lt;/span&gt;&lt;span style=&quot;color: #c678dd;&quot;&gt;let&lt;/span&gt;&lt;span style=&quot;color: #abb2bf;&quot;&gt; value &lt;/span&gt;&lt;span style=&quot;color: #56b6c2;&quot;&gt;=&lt;/span&gt;&lt;span style=&quot;color: #abb2bf;&quot;&gt; &lt;/span&gt;&lt;span style=&quot;color: #e06c75;&quot;&gt;this&lt;/span&gt;&lt;span style=&quot;color: #abb2bf;&quot;&gt;.&lt;/span&gt;&lt;span style=&quot;color: #e06c75;&quot;&gt;getter&lt;/span&gt;&lt;span style=&quot;color: #abb2bf;&quot;&gt;?.&lt;/span&gt;&lt;span style=&quot;color: #61afef;&quot;&gt;call&lt;/span&gt;&lt;span style=&quot;color: #abb2bf;&quot;&gt;(vm, vm)&lt;/span&gt;&lt;/div&gt;&lt;div&gt;&lt;span style=&quot;color: #abb2bf;&quot;&gt;    Dep.&lt;/span&gt;&lt;span style=&quot;color: #e06c75;&quot;&gt;target&lt;/span&gt;&lt;span style=&quot;color: #abb2bf;&quot;&gt; &lt;/span&gt;&lt;span style=&quot;color: #56b6c2;&quot;&gt;=&lt;/span&gt;&lt;span style=&quot;color: #abb2bf;&quot;&gt; &lt;/span&gt;&lt;span style=&quot;color: #d19a66;&quot;&gt;null&lt;/span&gt;&lt;/div&gt;&lt;div&gt;&lt;span style=&quot;color: #abb2bf;&quot;&gt;    &lt;/span&gt;&lt;span style=&quot;color: #c678dd;&quot;&gt;return&lt;/span&gt;&lt;span style=&quot;color: #abb2bf;&quot;&gt; value&lt;/span&gt;&lt;/div&gt;&lt;div&gt;&lt;span style=&quot;color: #abb2bf;&quot;&gt;  }&lt;/span&gt;&lt;/div&gt;&lt;br&gt;&lt;/div&gt;" style="text;whiteSpace=wrap;html=1;fontSize=24;" vertex="1" parent="1">
                    <mxGeometry x="1930" y="455" width="320" height="180" as="geometry"/>
                </mxCell>
                <mxCell id="82" value="&lt;span style=&quot;border-color: rgb(0, 0, 0); color: rgb(171, 178, 191); font-family: Menlo, Monaco, &amp;quot;Courier New&amp;quot;, monospace; font-size: 14px; font-style: normal; font-variant-ligatures: normal; font-variant-caps: normal; font-weight: 400; letter-spacing: normal; orphans: 2; text-align: left; text-indent: 0px; text-transform: none; widows: 2; word-spacing: 0px; -webkit-text-stroke-width: 0px; text-decoration-thickness: initial; text-decoration-style: initial; text-decoration-color: initial;&quot;&gt;Dep.&lt;/span&gt;&lt;span style=&quot;border-color: rgb(0, 0, 0); font-family: Menlo, Monaco, &amp;quot;Courier New&amp;quot;, monospace; font-size: 14px; font-style: normal; font-variant-ligatures: normal; font-variant-caps: normal; font-weight: 400; letter-spacing: normal; orphans: 2; text-align: left; text-indent: 0px; text-transform: none; widows: 2; word-spacing: 0px; -webkit-text-stroke-width: 0px; text-decoration-thickness: initial; text-decoration-style: initial; text-decoration-color: initial; color: rgb(224, 108, 117);&quot;&gt;target = this&lt;/span&gt;" style="text;whiteSpace=wrap;html=1;fontSize=24;fillColor=#6a00ff;fontColor=#ffffff;strokeColor=#3700CC;" vertex="1" parent="1">
                    <mxGeometry x="1510" y="476.12" width="150" height="40" as="geometry"/>
                </mxCell>
                <mxCell id="84" value="&lt;span style=&quot;border-color: rgb(0, 0, 0); color: rgb(171, 178, 191); font-family: Menlo, Monaco, &amp;quot;Courier New&amp;quot;, monospace; font-size: 14px; font-style: normal; font-variant-ligatures: normal; font-variant-caps: normal; font-weight: 400; letter-spacing: normal; orphans: 2; text-align: left; text-indent: 0px; text-transform: none; widows: 2; word-spacing: 0px; -webkit-text-stroke-width: 0px; text-decoration-thickness: initial; text-decoration-style: initial; text-decoration-color: initial;&quot;&gt;Dep.&lt;/span&gt;&lt;span style=&quot;border-color: rgb(0, 0, 0); font-family: Menlo, Monaco, &amp;quot;Courier New&amp;quot;, monospace; font-size: 14px; font-style: normal; font-variant-ligatures: normal; font-variant-caps: normal; font-weight: 400; letter-spacing: normal; orphans: 2; text-align: left; text-indent: 0px; text-transform: none; widows: 2; word-spacing: 0px; -webkit-text-stroke-width: 0px; text-decoration-thickness: initial; text-decoration-style: initial; text-decoration-color: initial; color: rgb(224, 108, 117);&quot;&gt;target = null&lt;/span&gt;" style="text;whiteSpace=wrap;html=1;fontSize=24;fillColor=#6a00ff;fontColor=#ffffff;strokeColor=#3700CC;" vertex="1" parent="1">
                    <mxGeometry x="1510" y="565" width="150" height="40" as="geometry"/>
                </mxCell>
                <mxCell id="90" value="" style="edgeStyle=none;html=1;fontSize=24;" edge="1" parent="1" source="87" target="89">
                    <mxGeometry relative="1" as="geometry"/>
                </mxCell>
                <mxCell id="87" value="_initData" style="whiteSpace=wrap;html=1;fontSize=24;" vertex="1" parent="1">
                    <mxGeometry x="-140" y="100" width="120" height="60" as="geometry"/>
                </mxCell>
                <mxCell id="89" value="observe(this._data)" style="whiteSpace=wrap;html=1;fontSize=24;fillColor=#0050ef;fontColor=#ffffff;strokeColor=#001DBC;" vertex="1" parent="1">
                    <mxGeometry x="-420" y="99.99999999999999" width="210" height="60" as="geometry"/>
                </mxCell>
                <mxCell id="96" style="edgeStyle=none;html=1;exitX=0.5;exitY=1;exitDx=0;exitDy=0;entryX=0.445;entryY=-0.087;entryDx=0;entryDy=0;entryPerimeter=0;fontSize=24;" edge="1" parent="1" source="93" target="95">
                    <mxGeometry relative="1" as="geometry"/>
                </mxCell>
                <mxCell id="93" value="observe(this._data)" style="ellipse;whiteSpace=wrap;html=1;fontSize=24;fillColor=#0050ef;fontColor=#ffffff;strokeColor=#001DBC;" vertex="1" parent="1">
                    <mxGeometry x="2410" y="160" width="200" height="110" as="geometry"/>
                </mxCell>
                <mxCell id="97" style="edgeStyle=none;html=1;fontSize=24;entryX=0;entryY=0.75;entryDx=0;entryDy=0;" edge="1" parent="1" source="95" target="107">
                    <mxGeometry relative="1" as="geometry">
                        <mxPoint x="2520" y="475" as="targetPoint"/>
                    </mxGeometry>
                </mxCell>
                <mxCell id="141" style="edgeStyle=none;html=1;exitX=1;exitY=0.75;exitDx=0;exitDy=0;entryX=0;entryY=0.75;entryDx=0;entryDy=0;strokeColor=#FFFFFF;fontSize=24;" edge="1" parent="1" source="95" target="140">
                    <mxGeometry relative="1" as="geometry"/>
                </mxCell>
                <mxCell id="95" value="&lt;div style=&quot;color: rgb(171, 178, 191); font-family: Menlo, Monaco, &amp;quot;Courier New&amp;quot;, monospace; line-height: 21px;&quot;&gt;&lt;font style=&quot;font-size: 24px;&quot;&gt;&lt;span style=&quot;color: rgb(224, 108, 117);&quot;&gt;ob&lt;/span&gt; &lt;span style=&quot;color: rgb(86, 182, 194);&quot;&gt;=&lt;/span&gt; &lt;span style=&quot;color: rgb(198, 120, 221);&quot;&gt;new&lt;/span&gt; &lt;span style=&quot;color: rgb(97, 175, 239);&quot;&gt;Observer&lt;/span&gt;(&lt;span style=&quot;color: rgb(224, 108, 117);&quot;&gt;value&lt;/span&gt;)&lt;/font&gt;&lt;/div&gt;" style="whiteSpace=wrap;html=1;fontSize=24;fillColor=#ffcccc;strokeColor=#36393d;" vertex="1" parent="1">
                    <mxGeometry x="2400" y="359.71" width="240" height="80" as="geometry"/>
                </mxCell>
                <mxCell id="106" style="edgeStyle=none;html=1;entryX=0.5;entryY=0;entryDx=0;entryDy=0;fontSize=24;" edge="1" parent="1" source="95" target="105">
                    <mxGeometry relative="1" as="geometry">
                        <mxPoint x="2516.333333333333" y="625" as="sourcePoint"/>
                    </mxGeometry>
                </mxCell>
                <mxCell id="109" style="edgeStyle=none;html=1;exitX=1;exitY=0.75;exitDx=0;exitDy=0;entryX=0;entryY=0.75;entryDx=0;entryDy=0;fontSize=24;" edge="1" parent="1" source="105" target="108">
                    <mxGeometry relative="1" as="geometry"/>
                </mxCell>
                <mxCell id="105" value="&lt;div style=&quot;background-color: rgb(40, 44, 52); font-family: Menlo, Monaco, &amp;quot;Courier New&amp;quot;, monospace; font-size: 14px; line-height: 21px;&quot;&gt;&lt;font color=&quot;#61afef&quot;&gt;遍历&amp;nbsp;&lt;/font&gt;&lt;/div&gt;&lt;span style=&quot;font-family: Menlo, Monaco, &amp;quot;Courier New&amp;quot;, monospace; font-size: 14px; text-align: left; background-color: rgb(40, 44, 52); color: rgb(229, 192, 123);&quot;&gt;Object&lt;/span&gt;&lt;span style=&quot;color: rgb(171, 178, 191); font-family: Menlo, Monaco, &amp;quot;Courier New&amp;quot;, monospace; font-size: 14px; text-align: left; background-color: rgb(40, 44, 52);&quot;&gt;.&lt;/span&gt;&lt;span style=&quot;font-family: Menlo, Monaco, &amp;quot;Courier New&amp;quot;, monospace; font-size: 14px; text-align: left; background-color: rgb(40, 44, 52); color: rgb(97, 175, 239);&quot;&gt;keys&lt;/span&gt;&lt;span style=&quot;color: rgb(171, 178, 191); font-family: Menlo, Monaco, &amp;quot;Courier New&amp;quot;, monospace; font-size: 14px; text-align: left; background-color: rgb(40, 44, 52);&quot;&gt;(value)&lt;br&gt;&lt;/span&gt;&lt;div style=&quot;color: rgb(171, 178, 191); background-color: rgb(40, 44, 52); font-family: Menlo, Monaco, &amp;quot;Courier New&amp;quot;, monospace; font-size: 14px; line-height: 21px;&quot;&gt;&lt;span style=&quot;color: #61afef;&quot;&gt;defineReactive&lt;/span&gt;(obj, key, obj[key])&lt;/div&gt;" style="whiteSpace=wrap;html=1;fontSize=24;" vertex="1" parent="1">
                    <mxGeometry x="2360" y="485" width="180" height="60" as="geometry"/>
                </mxCell>
                <mxCell id="107" value="this.dep = new Dep()" style="whiteSpace=wrap;html=1;fontSize=24;fillColor=#6a00ff;fontColor=#ffffff;strokeColor=#3700CC;" vertex="1" parent="1">
                    <mxGeometry x="2693" y="280" width="260" height="40" as="geometry"/>
                </mxCell>
                <mxCell id="110" style="edgeStyle=none;html=1;entryX=1;entryY=0.25;entryDx=0;entryDy=0;fontSize=24;" edge="1" parent="1" source="108" target="105">
                    <mxGeometry relative="1" as="geometry"/>
                </mxCell>
                <mxCell id="112" style="edgeStyle=none;html=1;exitX=1;exitY=0.5;exitDx=0;exitDy=0;entryX=0.003;entryY=0.388;entryDx=0;entryDy=0;entryPerimeter=0;fontSize=24;" edge="1" parent="1" source="108" target="111">
                    <mxGeometry relative="1" as="geometry"/>
                </mxCell>
                <mxCell id="108" value="&lt;div style=&quot;color: rgb(171, 178, 191); background-color: rgb(40, 44, 52); font-family: Menlo, Monaco, &amp;quot;Courier New&amp;quot;, monospace; font-size: 14px; line-height: 21px;&quot;&gt;&lt;span style=&quot;color: #61afef;&quot;&gt;defineReactive&lt;/span&gt;(obj&lt;span style=&quot;color: #56b6c2;&quot;&gt;:&lt;/span&gt; {}, key&lt;span style=&quot;color: #56b6c2;&quot;&gt;:&lt;/span&gt; &lt;span style=&quot;color: #56b6c2;&quot;&gt;string&lt;/span&gt;, val&lt;span style=&quot;color: #56b6c2;&quot;&gt;:&lt;/span&gt; &lt;span style=&quot;color: #56b6c2;&quot;&gt;any&lt;/span&gt;)&lt;/div&gt;" style="whiteSpace=wrap;html=1;fontSize=24;" vertex="1" parent="1">
                    <mxGeometry x="2630" y="485.00000000000006" width="350" height="50" as="geometry"/>
                </mxCell>
                <mxCell id="121" value="get =&amp;gt; dep.depend()" style="edgeStyle=none;html=1;fontSize=24;strokeColor=#FF0000;" edge="1" parent="1" source="111">
                    <mxGeometry x="0.0002" relative="1" as="geometry">
                        <mxPoint x="2370" y="900" as="targetPoint"/>
                        <Array as="points"/>
                        <mxPoint as="offset"/>
                    </mxGeometry>
                </mxCell>
                <mxCell id="151" value="set =&amp;gt; dep.notify()" style="edgeStyle=none;html=1;exitX=0;exitY=1;exitDx=0;exitDy=0;entryX=1;entryY=0;entryDx=0;entryDy=0;strokeColor=#FFFFFF;fontSize=24;fontColor=#FFFFFF;" edge="1" parent="1" source="111" target="147">
                    <mxGeometry relative="1" as="geometry"/>
                </mxCell>
                <mxCell id="111" value="&lt;div style=&quot;color: rgb(171, 178, 191); background-color: rgb(40, 44, 52); font-family: Menlo, Monaco, &amp;quot;Courier New&amp;quot;, monospace; font-weight: normal; font-size: 14px; line-height: 21px;&quot;&gt;&lt;div&gt;&lt;span style=&quot;color: #c678dd;&quot;&gt;const&lt;/span&gt;&lt;span style=&quot;color: #abb2bf;&quot;&gt; &lt;/span&gt;&lt;span style=&quot;color: #d19a66;&quot;&gt;dep&lt;/span&gt;&lt;span style=&quot;color: #abb2bf;&quot;&gt; &lt;/span&gt;&lt;span style=&quot;color: #56b6c2;&quot;&gt;=&lt;/span&gt;&lt;span style=&quot;color: #abb2bf;&quot;&gt; &lt;/span&gt;&lt;span style=&quot;color: #c678dd;&quot;&gt;new&lt;/span&gt;&lt;span style=&quot;color: #abb2bf;&quot;&gt; &lt;/span&gt;&lt;span style=&quot;color: #61afef;&quot;&gt;Dep&lt;/span&gt;&lt;span style=&quot;color: #abb2bf;&quot;&gt;()&lt;/span&gt;&lt;/div&gt;&lt;div&gt;&lt;div style=&quot;line-height: 21px;&quot;&gt;&lt;div&gt; &lt;span style=&quot;color: #e5c07b;&quot;&gt;Object&lt;/span&gt;.&lt;span style=&quot;color: #61afef;&quot;&gt;defineProperty&lt;/span&gt;(obj, key, {&lt;/div&gt;&lt;div&gt;    &lt;span style=&quot;color: #61afef;&quot;&gt;get&lt;/span&gt;() {&lt;/div&gt;&lt;div&gt;      &lt;span style=&quot;color: #c678dd;&quot;&gt;if&lt;/span&gt; (Dep.&lt;span style=&quot;color: #e06c75;&quot;&gt;target&lt;/span&gt;) {&lt;/div&gt;&lt;div&gt;        dep.&lt;span style=&quot;color: #61afef;&quot;&gt;depend&lt;/span&gt;()&lt;/div&gt;&lt;div&gt;      }&lt;/div&gt;&lt;div&gt;      &lt;span style=&quot;color: #c678dd;&quot;&gt;return&lt;/span&gt; val&lt;/div&gt;&lt;div&gt;    },&lt;/div&gt;&lt;div&gt;    &lt;span style=&quot;color: #61afef;&quot;&gt;set&lt;/span&gt;(newVal) {&lt;/div&gt;&lt;div&gt;      val &lt;span style=&quot;color: #56b6c2;&quot;&gt;=&lt;/span&gt; newVal&lt;/div&gt;&lt;div&gt;      dep.&lt;span style=&quot;color: #61afef;&quot;&gt;notify&lt;/span&gt;()&lt;/div&gt;&lt;div&gt;    }&lt;/div&gt;&lt;div&gt;  })&lt;/div&gt;&lt;/div&gt;&lt;/div&gt;&lt;/div&gt;" style="whiteSpace=wrap;html=1;fontSize=24;align=center;fillColor=#fa6800;fontColor=#000000;strokeColor=#C73500;" vertex="1" parent="1">
                    <mxGeometry x="3070" y="455" width="390" height="255" as="geometry"/>
                </mxCell>
                <mxCell id="115" style="edgeStyle=none;html=1;entryX=0;entryY=0.5;entryDx=0;entryDy=0;fontSize=24;" edge="1" parent="1" source="113" target="114">
                    <mxGeometry relative="1" as="geometry"/>
                </mxCell>
                <mxCell id="122" style="edgeStyle=none;html=1;exitX=0.5;exitY=1;exitDx=0;exitDy=0;entryX=0.11;entryY=-0.045;entryDx=0;entryDy=0;entryPerimeter=0;fontSize=24;" edge="1" parent="1" source="113" target="120">
                    <mxGeometry relative="1" as="geometry"/>
                </mxCell>
                <mxCell id="148" style="edgeStyle=none;html=1;exitX=1;exitY=1;exitDx=0;exitDy=0;entryX=0.25;entryY=0;entryDx=0;entryDy=0;strokeColor=#FFFFFF;fontSize=24;fontColor=#FFFFFF;" edge="1" parent="1" source="113" target="147">
                    <mxGeometry relative="1" as="geometry"/>
                </mxCell>
                <mxCell id="113" value="Dep" style="ellipse;whiteSpace=wrap;html=1;fontSize=24;fillColor=#6a00ff;fontColor=#ffffff;strokeColor=#3700CC;" vertex="1" parent="1">
                    <mxGeometry x="2100" y="710.0000000000001" width="80" height="80" as="geometry"/>
                </mxCell>
                <mxCell id="114" value="&lt;div style=&quot;color: rgb(171, 178, 191); background-color: rgb(40, 44, 52); font-family: Menlo, Monaco, &amp;quot;Courier New&amp;quot;, monospace; font-weight: normal; line-height: 21px;&quot;&gt;&lt;div style=&quot;&quot;&gt;&lt;font style=&quot;font-size: 24px;&quot;&gt;&lt;span style=&quot;color: rgb(171, 178, 191);&quot;&gt; id&lt;/span&gt;&lt;span style=&quot;color: rgb(86, 182, 194);&quot;&gt;:&lt;/span&gt;&lt;span style=&quot;color: rgb(171, 178, 191);&quot;&gt; &lt;/span&gt;&lt;span style=&quot;color: rgb(86, 182, 194);&quot;&gt;number&lt;/span&gt;&lt;/font&gt;&lt;/div&gt;&lt;div style=&quot;&quot;&gt;&lt;font style=&quot;font-size: 24px;&quot;&gt;&lt;span style=&quot;color: rgb(171, 178, 191);&quot;&gt;  subs&lt;/span&gt;&lt;span style=&quot;color: rgb(86, 182, 194);&quot;&gt;:&lt;/span&gt;&lt;span style=&quot;color: rgb(171, 178, 191);&quot;&gt; &lt;/span&gt;&lt;span style=&quot;color: rgb(229, 192, 123);&quot;&gt;Watcher&lt;/span&gt;&lt;span style=&quot;color: rgb(171, 178, 191);&quot;&gt;[] &lt;/span&gt;&lt;span style=&quot;color: rgb(86, 182, 194);&quot;&gt;=&lt;/span&gt;&lt;span style=&quot;color: rgb(171, 178, 191);&quot;&gt; []&lt;/span&gt;&lt;/font&gt;&lt;/div&gt;&lt;div style=&quot;&quot;&gt;&lt;div style=&quot;line-height: 21px;&quot;&gt;&lt;font style=&quot;font-size: 24px;&quot;&gt;&lt;span style=&quot;color: rgb(198, 120, 221);&quot;&gt;static&lt;/span&gt; target&lt;span style=&quot;color: rgb(86, 182, 194);&quot;&gt;:&lt;/span&gt; &lt;span style=&quot;color: rgb(229, 192, 123);&quot;&gt;Watcher&lt;/span&gt;&lt;/font&gt; &lt;/div&gt;&lt;/div&gt;&lt;/div&gt;" style="text;whiteSpace=wrap;html=1;fontSize=24;" vertex="1" parent="1">
                    <mxGeometry x="2270" y="641.92" width="380" height="76.17" as="geometry"/>
                </mxCell>
                <mxCell id="128" style="edgeStyle=none;html=1;entryX=0.5;entryY=0;entryDx=0;entryDy=0;fontSize=24;exitX=0.5;exitY=1;exitDx=0;exitDy=0;" edge="1" parent="1" source="113" target="131">
                    <mxGeometry relative="1" as="geometry"/>
                </mxCell>
                <mxCell id="129" value="&lt;span style=&quot;color: rgb(171, 178, 191); font-family: Menlo, Monaco, &amp;quot;Courier New&amp;quot;, monospace; font-size: 14px; text-align: left; background-color: rgb(40, 44, 52);&quot;&gt;Dep.&lt;/span&gt;&lt;span style=&quot;font-family: Menlo, Monaco, &amp;quot;Courier New&amp;quot;, monospace; font-size: 14px; text-align: left; background-color: rgb(40, 44, 52); color: rgb(224, 108, 117);&quot;&gt;target&lt;/span&gt;&lt;span style=&quot;color: rgb(171, 178, 191); font-family: Menlo, Monaco, &amp;quot;Courier New&amp;quot;, monospace; font-size: 14px; text-align: left; background-color: rgb(40, 44, 52);&quot;&gt;.&lt;/span&gt;&lt;span style=&quot;font-family: Menlo, Monaco, &amp;quot;Courier New&amp;quot;, monospace; font-size: 14px; text-align: left; background-color: rgb(40, 44, 52); color: rgb(97, 175, 239);&quot;&gt;addDep&lt;/span&gt;&lt;span style=&quot;color: rgb(171, 178, 191); font-family: Menlo, Monaco, &amp;quot;Courier New&amp;quot;, monospace; font-size: 14px; text-align: left; background-color: rgb(40, 44, 52);&quot;&gt;(&lt;/span&gt;&lt;span style=&quot;font-family: Menlo, Monaco, &amp;quot;Courier New&amp;quot;, monospace; font-size: 14px; text-align: left; background-color: rgb(40, 44, 52); color: rgb(224, 108, 117);&quot;&gt;this&lt;/span&gt;&lt;span style=&quot;color: rgb(171, 178, 191); font-family: Menlo, Monaco, &amp;quot;Courier New&amp;quot;, monospace; font-size: 14px; text-align: left; background-color: rgb(40, 44, 52);&quot;&gt;)&lt;/span&gt;" style="edgeStyle=none;html=1;strokeColor=#FF0000;fontSize=24;entryX=1;entryY=0.5;entryDx=0;entryDy=0;" edge="1" parent="1" source="120" target="124">
                    <mxGeometry relative="1" as="geometry">
                        <mxPoint x="1690" y="810" as="targetPoint"/>
                    </mxGeometry>
                </mxCell>
                <mxCell id="120" value="depend()" style="whiteSpace=wrap;html=1;labelBackgroundColor=none;fontSize=24;" vertex="1" parent="1">
                    <mxGeometry x="2270" y="850" width="120" height="60" as="geometry"/>
                </mxCell>
                <mxCell id="127" style="edgeStyle=none;html=1;entryX=1;entryY=0.5;entryDx=0;entryDy=0;fontSize=24;" edge="1" parent="1" source="124" target="126">
                    <mxGeometry relative="1" as="geometry"/>
                </mxCell>
                <mxCell id="130" style="edgeStyle=none;html=1;exitX=1;exitY=1;exitDx=0;exitDy=0;entryX=0;entryY=0.25;entryDx=0;entryDy=0;strokeColor=#FF0000;fontSize=24;" edge="1" parent="1" source="124" target="131">
                    <mxGeometry relative="1" as="geometry"/>
                </mxCell>
                <mxCell id="124" value="&lt;div style=&quot;color: rgb(171, 178, 191); background-color: rgb(40, 44, 52); font-family: Menlo, Monaco, &amp;quot;Courier New&amp;quot;, monospace; line-height: 21px;&quot;&gt;&lt;span style=&quot;color: rgb(97, 175, 239);&quot;&gt;&lt;font style=&quot;font-size: 24px;&quot;&gt;addDep&lt;/font&gt;&lt;/span&gt;&lt;span style=&quot;font-size: 14px;&quot;&gt;(dep&lt;/span&gt;&lt;span style=&quot;font-size: 14px; color: rgb(86, 182, 194);&quot;&gt;:&lt;/span&gt;&lt;span style=&quot;font-size: 14px;&quot;&gt; &lt;/span&gt;&lt;span style=&quot;font-size: 14px; color: rgb(229, 192, 123);&quot;&gt;Dep&lt;/span&gt;&lt;span style=&quot;font-size: 14px;&quot;&gt;)&lt;/span&gt;&lt;/div&gt;" style="whiteSpace=wrap;html=1;labelBackgroundColor=none;fontSize=24;" vertex="1" parent="1">
                    <mxGeometry x="1489" y="700" width="165" height="60" as="geometry"/>
                </mxCell>
                <mxCell id="125" value="&lt;div style=&quot;color: rgb(171, 178, 191); background-color: rgb(40, 44, 52); font-family: Menlo, Monaco, &amp;quot;Courier New&amp;quot;, monospace; font-weight: normal; line-height: 21px;&quot;&gt;&lt;div style=&quot;&quot;&gt;&lt;font style=&quot;font-size: 24px;&quot;&gt;&lt;span style=&quot;color: rgb(171, 178, 191);&quot;&gt; &lt;/span&gt;&lt;span style=&quot;color: rgb(224, 108, 117);&quot;&gt;this&lt;/span&gt;&lt;span style=&quot;color: rgb(171, 178, 191);&quot;&gt;.&lt;/span&gt;&lt;span style=&quot;color: rgb(224, 108, 117);&quot;&gt;subs&lt;/span&gt;&lt;span style=&quot;color: rgb(171, 178, 191);&quot;&gt;.&lt;/span&gt;&lt;span style=&quot;color: rgb(97, 175, 239);&quot;&gt;push&lt;/span&gt;&lt;span style=&quot;color: rgb(171, 178, 191);&quot;&gt;(&lt;/span&gt;&lt;span style=&quot;color: rgb(224, 108, 117);&quot;&gt;sub&lt;/span&gt;&lt;span style=&quot;color: rgb(171, 178, 191);&quot;&gt;)&lt;/span&gt;&lt;/font&gt;&lt;/div&gt;&lt;/div&gt;" style="text;whiteSpace=wrap;html=1;fontSize=24;" vertex="1" parent="1">
                    <mxGeometry x="1870" y="970" width="160" height="30" as="geometry"/>
                </mxCell>
                <mxCell id="126" value="&lt;div style=&quot;color: rgb(171, 178, 191); background-color: rgb(40, 44, 52); font-family: Menlo, Monaco, &amp;quot;Courier New&amp;quot;, monospace; font-weight: normal; line-height: 21px;&quot;&gt;&lt;div style=&quot;&quot;&gt;&lt;font style=&quot;font-size: 24px;&quot;&gt;&lt;span style=&quot;color: rgb(171, 178, 191);&quot;&gt; &lt;/span&gt;&lt;span style=&quot;color: rgb(224, 108, 117);&quot;&gt;this&lt;/span&gt;&lt;span style=&quot;color: rgb(171, 178, 191);&quot;&gt;.&lt;/span&gt;&lt;span style=&quot;color: rgb(224, 108, 117);&quot;&gt;deps&lt;/span&gt;&lt;span style=&quot;color: rgb(171, 178, 191);&quot;&gt;?.&lt;/span&gt;&lt;span style=&quot;color: rgb(97, 175, 239);&quot;&gt;push&lt;/span&gt;&lt;span style=&quot;color: rgb(171, 178, 191);&quot;&gt;(dep)&lt;/span&gt;&lt;/font&gt;&lt;/div&gt;&lt;div style=&quot;font-size: 14px;&quot;&gt;&lt;span style=&quot;color: #abb2bf;&quot;&gt;      &lt;/span&gt;&lt;span style=&quot;color: #e06c75;&quot;&gt;this&lt;/span&gt;&lt;span style=&quot;color: #abb2bf;&quot;&gt;.&lt;/span&gt;&lt;span style=&quot;color: #e06c75;&quot;&gt;depIds&lt;/span&gt;&lt;span style=&quot;color: #abb2bf;&quot;&gt;?.&lt;/span&gt;&lt;span style=&quot;color: #61afef;&quot;&gt;add&lt;/span&gt;&lt;span style=&quot;color: #abb2bf;&quot;&gt;(dep.&lt;/span&gt;&lt;span style=&quot;color: #e06c75;&quot;&gt;id&lt;/span&gt;&lt;span style=&quot;color: #abb2bf;&quot;&gt;)&lt;/span&gt;&lt;/div&gt;&lt;/div&gt;" style="text;whiteSpace=wrap;html=1;fontSize=24;" vertex="1" parent="1">
                    <mxGeometry x="1150" y="718.09" width="290" height="61.91" as="geometry"/>
                </mxCell>
                <mxCell id="133" style="edgeStyle=none;html=1;entryX=0.75;entryY=0;entryDx=0;entryDy=0;strokeColor=#FFFFFF;fontSize=24;" edge="1" parent="1" source="131" target="125">
                    <mxGeometry relative="1" as="geometry"/>
                </mxCell>
                <mxCell id="131" value="&lt;div style=&quot;color: rgb(171, 178, 191); background-color: rgb(40, 44, 52); font-family: Menlo, Monaco, &amp;quot;Courier New&amp;quot;, monospace; font-weight: normal; line-height: 21px;&quot;&gt;&lt;div style=&quot;&quot;&gt;&lt;font style=&quot;font-size: 24px;&quot;&gt;&lt;span style=&quot;color: rgb(97, 175, 239);&quot;&gt;addSub&lt;/span&gt;(sub&lt;span style=&quot;color: rgb(86, 182, 194);&quot;&gt;:&lt;/span&gt; &lt;span style=&quot;color: rgb(229, 192, 123);&quot;&gt;Watcher&lt;/span&gt;) &lt;/font&gt;&lt;/div&gt;&lt;/div&gt;" style="whiteSpace=wrap;html=1;labelBackgroundColor=none;fontSize=24;" vertex="1" parent="1">
                    <mxGeometry x="1990" y="890" width="200" height="60" as="geometry"/>
                </mxCell>
                <mxCell id="134" value="&lt;meta charset=&quot;utf-8&quot;&gt;&lt;div style=&quot;color: rgb(171, 178, 191); background-color: rgb(40, 44, 52); font-family: Menlo, Monaco, &amp;quot;Courier New&amp;quot;, monospace; font-weight: normal; font-size: 14px; line-height: 21px;&quot;&gt;&lt;div&gt;&lt;span style=&quot;color: #abb2bf;&quot;&gt;deps&lt;/span&gt;&lt;span style=&quot;color: #56b6c2;&quot;&gt;:&lt;/span&gt;&lt;span style=&quot;color: #abb2bf;&quot;&gt; &lt;/span&gt;&lt;span style=&quot;color: #e5c07b;&quot;&gt;Dep&lt;/span&gt;&lt;span style=&quot;color: #abb2bf;&quot;&gt;[] &lt;/span&gt;&lt;span style=&quot;color: #56b6c2;&quot;&gt;|&lt;/span&gt;&lt;span style=&quot;color: #abb2bf;&quot;&gt; &lt;/span&gt;&lt;span style=&quot;color: #56b6c2;&quot;&gt;null&lt;/span&gt;&lt;span style=&quot;color: #abb2bf;&quot;&gt; &lt;/span&gt;&lt;span style=&quot;color: #56b6c2;&quot;&gt;=&lt;/span&gt;&lt;span style=&quot;color: #abb2bf;&quot;&gt; &lt;/span&gt;&lt;span style=&quot;color: #d19a66;&quot;&gt;null&lt;/span&gt;&lt;/div&gt;&lt;div&gt;&lt;span style=&quot;color: #abb2bf;&quot;&gt;  depIds&lt;/span&gt;&lt;span style=&quot;color: #56b6c2;&quot;&gt;:&lt;/span&gt;&lt;span style=&quot;color: #abb2bf;&quot;&gt; &lt;/span&gt;&lt;span style=&quot;color: #e5c07b;&quot;&gt;Set&lt;/span&gt;&lt;span style=&quot;color: #abb2bf;&quot;&gt;&amp;lt;number&amp;gt; &lt;/span&gt;&lt;span style=&quot;color: #56b6c2;&quot;&gt;|&lt;/span&gt;&lt;span style=&quot;color: #abb2bf;&quot;&gt; &lt;/span&gt;&lt;span style=&quot;color: #56b6c2;&quot;&gt;null&lt;/span&gt;&lt;span style=&quot;color: #abb2bf;&quot;&gt; &lt;/span&gt;&lt;span style=&quot;color: #56b6c2;&quot;&gt;=&lt;/span&gt;&lt;span style=&quot;color: #abb2bf;&quot;&gt; &lt;/span&gt;&lt;span style=&quot;color: #d19a66;&quot;&gt;null&lt;/span&gt;&lt;/div&gt;&lt;div&gt;&lt;span style=&quot;color: #abb2bf;&quot;&gt;  value&lt;/span&gt;&lt;span style=&quot;color: #56b6c2;&quot;&gt;:&lt;/span&gt;&lt;span style=&quot;color: #abb2bf;&quot;&gt; &lt;/span&gt;&lt;span style=&quot;color: #56b6c2;&quot;&gt;any&lt;/span&gt;&lt;span style=&quot;color: #abb2bf;&quot;&gt; &lt;/span&gt;&lt;span style=&quot;color: #56b6c2;&quot;&gt;|&lt;/span&gt;&lt;span style=&quot;color: #abb2bf;&quot;&gt; &lt;/span&gt;&lt;span style=&quot;color: #56b6c2;&quot;&gt;undefined&lt;/span&gt;&lt;/div&gt;&lt;/div&gt;" style="text;whiteSpace=wrap;html=1;fontSize=24;" vertex="1" parent="1">
                    <mxGeometry x="1975" y="110" width="310" height="90" as="geometry"/>
                </mxCell>
                <mxCell id="138" value="&lt;div style=&quot;color: rgb(171, 178, 191); background-color: rgb(40, 44, 52); font-family: Menlo, Monaco, &amp;quot;Courier New&amp;quot;, monospace; font-weight: normal; font-size: 14px; line-height: 21px;&quot;&gt;&lt;br&gt;&lt;/div&gt;" style="text;whiteSpace=wrap;html=1;fontSize=24;" vertex="1" parent="1">
                    <mxGeometry x="2330" y="950" width="230" height="40" as="geometry"/>
                </mxCell>
                <mxCell id="140" value="&lt;div style=&quot;color: rgb(171, 178, 191); background-color: rgb(40, 44, 52); font-family: Menlo, Monaco, &amp;quot;Courier New&amp;quot;, monospace; font-weight: normal; line-height: 21px;&quot;&gt;&lt;div style=&quot;&quot;&gt;&lt;font style=&quot;font-size: 24px;&quot;&gt;&lt;span style=&quot;color: rgb(97, 175, 239);&quot;&gt;def&lt;/span&gt;&lt;span style=&quot;color: rgb(171, 178, 191);&quot;&gt;(value, &lt;/span&gt;&lt;span style=&quot;color: rgb(152, 195, 121);&quot;&gt;'__ob__'&lt;/span&gt;&lt;span style=&quot;color: rgb(171, 178, 191);&quot;&gt;, &lt;/span&gt;&lt;span style=&quot;color: rgb(224, 108, 117);&quot;&gt;this&lt;/span&gt;&lt;span style=&quot;color: rgb(171, 178, 191);&quot;&gt;)&lt;/span&gt;&lt;/font&gt;&lt;/div&gt;&lt;/div&gt;" style="text;whiteSpace=wrap;html=1;fontSize=24;" vertex="1" parent="1">
                    <mxGeometry x="2720" y="369.71" width="420" height="40.29" as="geometry"/>
                </mxCell>
                <mxCell id="144" value="取值" style="ellipse;shape=cloud;whiteSpace=wrap;html=1;labelBackgroundColor=#f0310f;fontSize=24;" vertex="1" parent="1">
                    <mxGeometry x="960" y="685" width="120" height="80" as="geometry"/>
                </mxCell>
                <mxCell id="145" value="取值" style="ellipse;shape=cloud;whiteSpace=wrap;html=1;labelBackgroundColor=#f0310f;fontSize=24;" vertex="1" parent="1">
                    <mxGeometry x="1654" y="280" width="120" height="80" as="geometry"/>
                </mxCell>
                <mxCell id="150" style="edgeStyle=none;html=1;exitX=1;exitY=0.75;exitDx=0;exitDy=0;entryX=0;entryY=0.5;entryDx=0;entryDy=0;strokeColor=#FFFFFF;fontSize=24;fontColor=#FFFFFF;" edge="1" parent="1" source="147" target="149">
                    <mxGeometry relative="1" as="geometry"/>
                </mxCell>
                <mxCell id="154" style="edgeStyle=none;html=1;entryX=1;entryY=0.75;entryDx=0;entryDy=0;strokeColor=#FFFFFF;fontSize=24;fontColor=#FFFFFF;" edge="1" parent="1" source="147" target="152">
                    <mxGeometry relative="1" as="geometry"/>
                </mxCell>
                <mxCell id="147" value="notify 遍历subs的watcher" style="whiteSpace=wrap;html=1;labelBackgroundColor=#f0310f;fontSize=24;" vertex="1" parent="1">
                    <mxGeometry x="2170" y="1050" width="240" height="60" as="geometry"/>
                </mxCell>
                <mxCell id="149" value="&lt;div style=&quot;color: rgb(171, 178, 191); background-color: rgb(40, 44, 52); font-family: Menlo, Monaco, &amp;quot;Courier New&amp;quot;, monospace; font-weight: normal; line-height: 21px;&quot;&gt;&lt;div style=&quot;&quot;&gt;&lt;font style=&quot;font-size: 24px;&quot;&gt;&lt;span style=&quot;color: rgb(224, 108, 117);&quot;&gt;this&lt;/span&gt;&lt;span style=&quot;color: rgb(171, 178, 191);&quot;&gt;.&lt;/span&gt;&lt;span style=&quot;color: rgb(224, 108, 117);&quot;&gt;subs&lt;/span&gt;&lt;span style=&quot;color: rgb(171, 178, 191);&quot;&gt;.&lt;/span&gt;&lt;span style=&quot;color: rgb(97, 175, 239);&quot;&gt;forEach&lt;/span&gt;&lt;span style=&quot;color: rgb(171, 178, 191);&quot;&gt;((watcher) &lt;/span&gt;&lt;span style=&quot;color: rgb(198, 120, 221);&quot;&gt;=&amp;gt;&lt;/span&gt;&lt;span style=&quot;color: rgb(171, 178, 191);&quot;&gt; {&lt;/span&gt;&lt;/font&gt;&lt;/div&gt;&lt;div style=&quot;&quot;&gt;&lt;font style=&quot;font-size: 24px;&quot;&gt;&lt;span style=&quot;color: #abb2bf;&quot;&gt;      watcher.&lt;/span&gt;&lt;span style=&quot;color: #61afef;&quot;&gt;update&lt;/span&gt;&lt;span style=&quot;color: #abb2bf;&quot;&gt;()&lt;/span&gt;&lt;/font&gt;&lt;/div&gt;&lt;div style=&quot;&quot;&gt;&lt;span style=&quot;color: rgb(171, 178, 191);&quot;&gt;&lt;font size=&quot;3&quot;&gt;    })&lt;/font&gt;&lt;/span&gt;&lt;/div&gt;&lt;/div&gt;" style="text;whiteSpace=wrap;html=1;fontSize=24;fontColor=#FFFFFF;" vertex="1" parent="1">
                    <mxGeometry x="2510" y="1100" width="460" height="100" as="geometry"/>
                </mxCell>
                <mxCell id="156" style="edgeStyle=none;html=1;strokeColor=#FFFFFF;fontSize=24;fontColor=#FFFFFF;" edge="1" parent="1" source="152" target="155">
                    <mxGeometry relative="1" as="geometry"/>
                </mxCell>
                <mxCell id="152" value="update()&lt;br&gt;执行directive中对应的update" style="whiteSpace=wrap;html=1;labelBackgroundColor=none;fontSize=24;fontColor=#FFFFFF;" vertex="1" parent="1">
                    <mxGeometry x="1660" y="1000" width="270" height="90" as="geometry"/>
                </mxCell>
                <mxCell id="155" value="&lt;div style=&quot;color: rgb(171, 178, 191); background-color: rgb(40, 44, 52); font-family: Menlo, Monaco, &amp;quot;Courier New&amp;quot;, monospace; font-weight: normal; line-height: 21px;&quot;&gt;&lt;div style=&quot;font-size: 14px;&quot;&gt;&lt;span style=&quot;color: #abb2bf;&quot;&gt;{&lt;/span&gt;&lt;/div&gt;&lt;div style=&quot;font-size: 14px;&quot;&gt;&lt;span style=&quot;color: #abb2bf;&quot;&gt;    &lt;/span&gt;&lt;span style=&quot;color: #c678dd;&quot;&gt;const&lt;/span&gt;&lt;span style=&quot;color: #abb2bf;&quot;&gt; &lt;/span&gt;&lt;span style=&quot;color: #d19a66;&quot;&gt;value&lt;/span&gt;&lt;span style=&quot;color: #abb2bf;&quot;&gt; &lt;/span&gt;&lt;span style=&quot;color: #56b6c2;&quot;&gt;=&lt;/span&gt;&lt;span style=&quot;color: #abb2bf;&quot;&gt; &lt;/span&gt;&lt;span style=&quot;color: #e06c75;&quot;&gt;this&lt;/span&gt;&lt;span style=&quot;color: #abb2bf;&quot;&gt;.&lt;/span&gt;&lt;span style=&quot;color: #61afef;&quot;&gt;get&lt;/span&gt;&lt;span style=&quot;color: #abb2bf;&quot;&gt;()&lt;/span&gt;&lt;/div&gt;&lt;div style=&quot;font-size: 14px;&quot;&gt;&lt;span style=&quot;color: #abb2bf;&quot;&gt;    &lt;/span&gt;&lt;span style=&quot;color: #c678dd;&quot;&gt;const&lt;/span&gt;&lt;span style=&quot;color: #abb2bf;&quot;&gt; &lt;/span&gt;&lt;span style=&quot;color: #d19a66;&quot;&gt;oldValue&lt;/span&gt;&lt;span style=&quot;color: #abb2bf;&quot;&gt; &lt;/span&gt;&lt;span style=&quot;color: #56b6c2;&quot;&gt;=&lt;/span&gt;&lt;span style=&quot;color: #abb2bf;&quot;&gt; &lt;/span&gt;&lt;span style=&quot;color: #e06c75;&quot;&gt;this&lt;/span&gt;&lt;span style=&quot;color: #abb2bf;&quot;&gt;.&lt;/span&gt;&lt;span style=&quot;color: #e06c75;&quot;&gt;value&lt;/span&gt;&lt;/div&gt;&lt;div style=&quot;font-size: 14px;&quot;&gt;&lt;span style=&quot;color: #abb2bf;&quot;&gt;    &lt;/span&gt;&lt;span style=&quot;color: #e06c75;&quot;&gt;this&lt;/span&gt;&lt;span style=&quot;color: #abb2bf;&quot;&gt;.&lt;/span&gt;&lt;span style=&quot;color: #e06c75;&quot;&gt;value&lt;/span&gt;&lt;span style=&quot;color: #abb2bf;&quot;&gt; &lt;/span&gt;&lt;span style=&quot;color: #56b6c2;&quot;&gt;=&lt;/span&gt;&lt;span style=&quot;color: #abb2bf;&quot;&gt; value&lt;/span&gt;&lt;/div&gt;&lt;div style=&quot;font-size: 14px;&quot;&gt;&lt;span style=&quot;color: #abb2bf;&quot;&gt;    &lt;/span&gt;&lt;span style=&quot;color: #c678dd;&quot;&gt;if&lt;/span&gt;&lt;span style=&quot;color: #abb2bf;&quot;&gt; (value &lt;/span&gt;&lt;span style=&quot;color: #56b6c2;&quot;&gt;!==&lt;/span&gt;&lt;span style=&quot;color: #abb2bf;&quot;&gt; oldValue &lt;/span&gt;&lt;span style=&quot;color: #56b6c2;&quot;&gt;||&lt;/span&gt;&lt;span style=&quot;color: #abb2bf;&quot;&gt; &lt;/span&gt;&lt;span style=&quot;color: #61afef;&quot;&gt;isObject&lt;/span&gt;&lt;span style=&quot;color: #abb2bf;&quot;&gt;(value)) {&lt;/span&gt;&lt;/div&gt;&lt;div style=&quot;font-size: 14px;&quot;&gt;&lt;span style=&quot;color: #abb2bf;&quot;&gt;      &lt;/span&gt;&lt;span style=&quot;color: #5c6370;font-style: italic;&quot;&gt;// 指令集中的 update&lt;/span&gt;&lt;/div&gt;&lt;div style=&quot;&quot;&gt;&lt;font style=&quot;font-size: 24px;&quot;&gt;&lt;span style=&quot;color: rgb(171, 178, 191);&quot;&gt;      &lt;/span&gt;&lt;span style=&quot;color: rgb(224, 108, 117);&quot;&gt;this&lt;/span&gt;&lt;span style=&quot;color: rgb(171, 178, 191);&quot;&gt;.&lt;/span&gt;&lt;span style=&quot;color: rgb(224, 108, 117);&quot;&gt;cb&lt;/span&gt;&lt;span style=&quot;color: rgb(171, 178, 191);&quot;&gt;?.&lt;/span&gt;&lt;span style=&quot;color: rgb(97, 175, 239);&quot;&gt;call&lt;/span&gt;&lt;span style=&quot;color: rgb(171, 178, 191);&quot;&gt;(&lt;/span&gt;&lt;span style=&quot;color: rgb(224, 108, 117);&quot;&gt;this&lt;/span&gt;&lt;span style=&quot;color: rgb(171, 178, 191);&quot;&gt;.&lt;/span&gt;&lt;span style=&quot;color: rgb(224, 108, 117);&quot;&gt;vm&lt;/span&gt;&lt;span style=&quot;color: rgb(171, 178, 191);&quot;&gt;, value, oldValue)&lt;/span&gt;&lt;/font&gt;&lt;/div&gt;&lt;div style=&quot;font-size: 14px;&quot;&gt;&lt;span style=&quot;color: #abb2bf;&quot;&gt;    }&lt;/span&gt;&lt;/div&gt;&lt;div style=&quot;font-size: 14px;&quot;&gt;&lt;span style=&quot;color: #abb2bf;&quot;&gt;  }&lt;/span&gt;&lt;/div&gt;&lt;/div&gt;" style="text;whiteSpace=wrap;html=1;fontSize=24;fontColor=#FFFFFF;" vertex="1" parent="1">
                    <mxGeometry x="1150" y="940" width="470" height="210" as="geometry"/>
                </mxCell>
                <mxCell id="159" style="edgeStyle=none;html=1;exitX=0;exitY=0.25;exitDx=0;exitDy=0;entryX=1;entryY=0.5;entryDx=0;entryDy=0;strokeColor=#FFFFFF;fontSize=24;fontColor=#FFFFFF;" edge="1" parent="1" source="157" target="158">
                    <mxGeometry relative="1" as="geometry"/>
                </mxCell>
                <mxCell id="160" value="遍历&amp;nbsp;&lt;font style=&quot;font-size: 24px;&quot;&gt;&lt;span style=&quot;font-family: Menlo, Monaco, &amp;quot;Courier New&amp;quot;, monospace; color: rgb(224, 108, 117);&quot;&gt;this&lt;/span&gt;&lt;span style=&quot;background-color: rgb(40, 44, 52); color: rgb(171, 178, 191); font-family: Menlo, Monaco, &amp;quot;Courier New&amp;quot;, monospace;&quot;&gt;.&lt;/span&gt;&lt;span style=&quot;font-family: Menlo, Monaco, &amp;quot;Courier New&amp;quot;, monospace; color: rgb(224, 108, 117);&quot;&gt;$options&lt;/span&gt;&lt;span style=&quot;background-color: rgb(40, 44, 52); color: rgb(171, 178, 191); font-family: Menlo, Monaco, &amp;quot;Courier New&amp;quot;, monospace;&quot;&gt;.&lt;/span&gt;&lt;span style=&quot;font-family: Menlo, Monaco, &amp;quot;Courier New&amp;quot;, monospace; color: rgb(224, 108, 117);&quot;&gt;watch&lt;/span&gt;&lt;/font&gt;" style="edgeLabel;html=1;align=center;verticalAlign=middle;resizable=0;points=[];fontSize=24;fontColor=#FFFFFF;" vertex="1" connectable="0" parent="159">
                    <mxGeometry x="0.3324" y="1" relative="1" as="geometry">
                        <mxPoint x="20" y="-28" as="offset"/>
                    </mxGeometry>
                </mxCell>
                <mxCell id="157" value="_initWatche" style="whiteSpace=wrap;html=1;labelBackgroundColor=none;fontSize=24;fontColor=#FFFFFF;" vertex="1" parent="1">
                    <mxGeometry x="-170" y="185" width="170" height="60" as="geometry"/>
                </mxCell>
                <mxCell id="158" value="new Watcher(this,key,watch[key])" style="whiteSpace=wrap;html=1;labelBackgroundColor=none;fontSize=24;fontColor=#ffffff;fillColor=#1ba1e2;strokeColor=#006EAF;" vertex="1" parent="1">
                    <mxGeometry x="-740" y="299.71" width="390" height="60" as="geometry"/>
                </mxCell>
                <mxCell id="162" value="设置值" style="ellipse;shape=cloud;whiteSpace=wrap;html=1;labelBackgroundColor=#f0310f;fontSize=24;" vertex="1" parent="1">
                    <mxGeometry x="2895" y="780" width="120" height="80" as="geometry"/>
                </mxCell>
            </root>
        </mxGraphModel>
    </diagram>
</mxfile>